<?xml version="1.0" encoding="UTF-8" standalone="no"?>
<!DOCTYPE svg PUBLIC "-//W3C//DTD SVG 1.1//EN" "http://www.w3.org/Graphics/SVG/1.1/DTD/svg11.dtd">
<svg xmlns="http://www.w3.org/2000/svg" version="1.1" viewBox="0.00 0.00 7272.00 431.00">
<path fill="#ffffff" fill-opacity="0.541" d="
  M 6455.62 431.00
  L 6451.86 431.00
  L 6071.24 430.77
  A 0.45 0.45 0.0 0 1 6070.79 430.32
  L 6070.79 78.85
  A 0.32 0.32 0.0 0 1 6071.11 78.53
  L 6340.93 78.53
  A 0.38 0.37 90.0 0 1 6341.30 78.91
  L 6341.30 274.07
  A 0.34 0.33 -90.0 0 1 6340.97 274.41
  L 6225.88 274.41
  A 0.62 0.61 90.0 0 1 6225.27 273.79
  L 6225.27 196.95
  A 0.81 0.80 -0.0 0 0 6224.46 196.15
  L 6187.36 196.15
  A 0.39 0.39 0.0 0 0 6186.97 196.54
  L 6186.97 312.63
  A 0.60 0.59 90.0 0 0 6187.56 313.23
  L 6378.92 313.23
  A 0.67 0.66 90.0 0 0 6379.58 312.56
  L 6379.58 40.26
  A 0.65 0.65 0.0 0 0 6378.93 39.61
  L 6032.80 39.61
  A 0.35 0.34 -90.0 0 0 6032.46 39.96
  L 6032.46 430.12
  A 0.53 0.52 -0.6 0 1 6031.94 430.64
  L 5995.36 431.00
  L 5994.11 431.00
  L 5611.10 430.77
  A 0.53 0.53 0.0 0 1 5610.57 430.24
  L 5610.57 79.14
  A 0.61 0.61 0.0 0 1 5611.18 78.53
  L 5880.68 78.53
  A 0.31 0.31 0.0 0 1 5880.99 78.84
  L 5880.99 274.06
  A 0.36 0.35 0.0 0 1 5880.63 274.41
  L 5765.37 274.41
  A 0.46 0.46 0.0 0 1 5764.91 273.95
  L 5764.91 197.04
  A 0.91 0.91 0.0 0 0 5764.00 196.13
  L 5726.94 196.13
  A 0.29 0.28 -90.0 0 0 5726.66 196.42
  L 5726.66 312.66
  A 0.57 0.56 -90.0 0 0 5727.22 313.23
  L 5918.80 313.23
  A 0.74 0.73 -90.0 0 0 5919.53 312.49
  L 5919.53 40.56
  A 0.96 0.96 0.0 0 0 5918.57 39.60
  L 5572.87 39.60
  A 0.48 0.48 0.0 0 0 5572.39 40.08
  L 5572.39 430.15
  A 0.65 0.65 0.0 0 1 5571.91 430.78
  L 5571.12 431.00
  L 5533.84 431.00
  L 5147.96 430.77
  A 0.55 0.55 0.0 0 1 5147.41 430.22
  L 5147.41 79.13
  A 0.60 0.60 0.0 0 1 5148.01 78.53
  L 5417.36 78.53
  A 0.45 0.44 90.0 0 1 5417.80 78.98
  L 5417.80 273.82
  A 0.59 0.58 -90.0 0 1 5417.22 274.41
  L 5302.35 274.41
  A 0.57 0.57 0.0 0 1 5301.78 273.84
  L 5301.78 196.86
  A 0.73 0.73 0.0 0 0 5301.05 196.13
  L 5264.19 196.13
  A 0.77 0.77 0.0 0 0 5263.42 196.90
  L 5263.42 312.80
  A 0.43 0.43 0.0 0 0 5263.85 313.23
  L 5455.42 313.23
  A 0.80 0.80 0.0 0 0 5456.22 312.43
  L 5456.22 40.91
  A 1.31 1.30 0.0 0 0 5454.91 39.61
  L 5109.57 39.61
  A 0.71 0.70 0.0 0 0 5108.86 40.31
  L 5108.86 430.31
  A 0.46 0.46 0.0 0 1 5108.40 430.77
  L 4684.68 430.77
  A 0.61 0.61 0.0 0 1 4684.07 430.16
  L 4684.07 79.15
  A 0.62 0.62 0.0 0 1 4684.69 78.53
  L 4954.18 78.53
  A 0.39 0.39 0.0 0 1 4954.57 78.92
  L 4954.57 274.08
  A 0.33 0.32 0.0 0 1 4954.24 274.40
  L 4839.22 274.40
  A 0.76 0.76 0.0 0 1 4838.46 273.64
  L 4838.46 196.95
  A 0.82 0.82 0.0 0 0 4837.64 196.13
  L 4800.67 196.13
  A 0.48 0.48 0.0 0 0 4800.19 196.61
  L 4800.19 312.84
  A 0.39 0.39 0.0 0 0 4800.58 313.23
  L 4992.31 313.23
  A 0.53 0.52 90.0 0 0 4992.83 312.70
  L 4992.83 40.28
  A 0.68 0.67 90.0 0 0 4992.16 39.60
  L 4645.99 39.60
  A 0.33 0.33 0.0 0 0 4645.66 39.93
  L 4645.66 430.38
  A 0.39 0.38 90.0 0 1 4645.28 430.77
  L 4221.19 430.77
  A 0.41 0.41 0.0 0 1 4220.78 430.36
  L 4220.78 79.09
  A 0.56 0.56 0.0 0 1 4221.34 78.53
  L 4490.98 78.53
  A 0.37 0.37 0.0 0 1 4491.35 78.90
  L 4491.35 274.07
  A 0.34 0.34 0.0 0 1 4491.01 274.41
  L 4375.75 274.41
  A 0.48 0.48 0.0 0 1 4375.27 273.93
  L 4375.27 196.91
  A 0.78 0.77 0.0 0 0 4374.49 196.14
  L 4337.37 196.14
  A 0.54 0.54 0.0 0 0 4336.83 196.68
  L 4336.83 312.69
  A 0.54 0.54 0.0 0 0 4337.37 313.23
  L 4529.17 313.23
  A 0.45 0.44 90.0 0 0 4529.61 312.78
  L 4529.61 40.33
  A 0.72 0.72 0.0 0 0 4528.89 39.61
  L 4182.71 39.61
  A 0.32 0.31 0.0 0 0 4182.39 39.92
  L 4182.39 430.12
  A 0.70 0.70 0.0 0 1 4181.69 430.82
  L 4147.04 431.00
  L 4143.87 431.00
  L 3762.64 430.77
  A 0.35 0.34 90.0 0 1 3762.30 430.42
  L 3762.30 79.10
  A 0.57 0.56 -90.0 0 1 3762.86 78.53
  L 4032.06 78.53
  A 0.68 0.68 0.0 0 1 4032.74 79.21
  L 4032.74 273.65
  A 0.77 0.76 90.0 0 1 4031.98 274.42
  L 3917.18 274.42
  A 0.58 0.58 0.0 0 1 3916.60 273.84
  L 3916.60 196.85
  A 0.71 0.71 0.0 0 0 3915.89 196.14
  L 3878.85 196.14
  A 0.52 0.52 0.0 0 0 3878.33 196.66
  L 3878.33 312.86
  A 0.37 0.37 0.0 0 0 3878.70 313.23
  L 4070.53 313.23
  A 0.60 0.60 0.0 0 0 4071.13 312.63
  L 4071.13 40.40
  A 0.79 0.79 0.0 0 0 4070.34 39.61
  L 3724.13 39.61
  A 0.29 0.28 0.0 0 0 3723.84 39.89
  L 3723.84 430.21
  A 0.61 0.60 90.0 0 1 3723.24 430.82
  L 3688.87 431.00
  L 3685.37 431.00
  L 3304.76 430.77
  A 0.51 0.51 0.0 0 1 3304.25 430.26
  L 3304.25 79.11
  A 0.58 0.58 0.0 0 1 3304.83 78.53
  L 3574.24 78.53
  A 0.60 0.60 0.0 0 1 3574.84 79.13
  L 3574.84 273.68
  A 0.74 0.73 -0.0 0 1 3574.10 274.41
  L 3459.15 274.41
  A 0.57 0.56 -0.0 0 1 3458.58 273.85
  L 3458.58 196.93
  A 0.77 0.76 -90.0 0 0 3457.82 196.16
  L 3420.83 196.16
  A 0.36 0.36 0.0 0 0 3420.47 196.52
  L 3420.47 312.74
  A 0.49 0.49 0.0 0 0 3420.96 313.23
  L 3612.59 313.23
  A 0.71 0.71 0.0 0 0 3613.30 312.52
  L 3613.30 40.49
  A 0.89 0.88 -90.0 0 0 3612.42 39.60
  L 3266.78 39.60
  A 0.69 0.68 90.0 0 0 3266.10 40.29
  L 3266.10 430.14
  A 0.50 0.49 -0.6 0 1 3265.61 430.63
  L 3229.04 431.00
  L 3227.37 431.00
  L 2844.59 430.77
  A 0.33 0.33 0.0 0 1 2844.26 430.44
  L 2844.26 79.10
  A 0.57 0.57 0.0 0 1 2844.83 78.53
  L 3114.31 78.53
  A 0.39 0.38 -0.0 0 1 3114.70 78.91
  L 3114.70 274.09
  A 0.32 0.32 0.0 0 1 3114.38 274.41
  L 2999.00 274.41
  A 0.35 0.34 -90.0 0 1 2998.66 274.06
  L 2998.66 196.73
  A 0.60 0.60 0.0 0 0 2998.06 196.13
  L 2960.93 196.13
  A 0.65 0.64 -90.0 0 0 2960.29 196.78
  L 2960.29 312.86
  A 0.37 0.36 -90.0 0 0 2960.65 313.23
  L 3152.50 313.23
  A 0.60 0.59 90.0 0 0 3153.09 312.63
  L 3153.09 40.15
  A 0.53 0.53 0.0 0 0 3152.56 39.62
  L 2806.39 39.62
  A 0.54 0.54 0.0 0 0 2805.85 40.16
  L 2805.84 431.00
  L 2767.37 431.00
  L 2381.18 430.77
  A 0.42 0.41 -90.0 0 1 2380.77 430.35
  L 2380.77 79.08
  A 0.55 0.55 0.0 0 1 2381.32 78.53
  L 2650.85 78.53
  A 0.42 0.41 -0.0 0 1 2651.27 78.94
  L 2651.27 274.08
  A 0.34 0.33 -0.0 0 1 2650.93 274.41
  L 2535.69 274.41
  A 0.44 0.44 0.0 0 1 2535.25 273.97
  L 2535.25 196.95
  A 0.83 0.83 0.0 0 0 2534.42 196.12
  L 2497.16 196.12
  A 0.37 0.37 0.0 0 0 2496.79 196.49
  L 2496.79 312.95
  A 0.28 0.27 -90.0 0 0 2497.06 313.23
  L 2689.08 313.23
  A 0.51 0.50 -90.0 0 0 2689.58 312.72
  L 2689.58 40.20
  A 0.60 0.60 0.0 0 0 2688.98 39.60
  L 2342.71 39.60
  A 0.32 0.32 0.0 0 0 2342.39 39.92
  L 2342.39 430.26
  A 0.51 0.51 0.0 0 1 2341.88 430.77
  L 1918.14 430.77
  A 0.72 0.72 0.0 0 1 1917.42 430.05
  L 1917.42 78.99
  A 0.46 0.46 0.0 0 1 1917.88 78.53
  L 2187.52 78.53
  A 0.42 0.42 0.0 0 1 2187.94 78.95
  L 2187.94 274.08
  A 0.34 0.33 -0.0 0 1 2187.60 274.41
  L 2072.20 274.41
  A 0.38 0.38 0.0 0 1 2071.82 274.03
  L 2071.82 196.85
  A 0.73 0.72 -90.0 0 0 2071.10 196.12
  L 2033.95 196.12
  A 0.40 0.40 0.0 0 0 2033.55 196.52
  L 2033.55 312.86
  A 0.37 0.36 -90.0 0 0 2033.91 313.23
  L 2225.43 313.23
  A 0.92 0.92 0.0 0 0 2226.35 312.31
  L 2226.35 40.70
  A 1.09 1.09 0.0 0 0 2225.26 39.61
  L 1879.79 39.61
  A 0.64 0.63 -0.0 0 0 1879.15 40.24
  L 1879.15 430.25
  A 0.52 0.52 0.0 0 1 1878.63 430.77
  L 1454.74 430.77
  A 0.35 0.34 90.0 0 1 1454.40 430.42
  L 1454.40 79.10
  A 0.57 0.57 0.0 0 1 1454.97 78.53
  L 1724.36 78.53
  A 0.51 0.50 90.0 0 1 1724.86 79.04
  L 1724.86 273.98
  A 0.43 0.42 -90.0 0 1 1724.44 274.41
  L 1609.06 274.41
  A 0.24 0.24 0.0 0 1 1608.82 274.17
  L 1608.82 196.78
  A 0.63 0.63 0.0 0 0 1608.19 196.15
  L 1571.46 196.15
  A 0.51 0.50 -27.2 0 1 1571.17 196.06
  Q 1570.91 195.89 1570.90 195.88
  A 0.40 0.40 0.0 0 0 1570.44 196.27
  L 1570.44 312.72
  A 0.51 0.50 90.0 0 0 1570.94 313.23
  L 1762.90 313.23
  A 0.39 0.39 0.0 0 0 1763.29 312.84
  L 1763.29 40.13
  A 0.52 0.52 0.0 0 0 1762.77 39.61
  L 1416.82 39.61
  A 0.68 0.68 0.0 0 0 1416.15 40.18
  Q 1416.02 40.97 1416.02 43.00
  Q 1416.03 85.19 1416.02 430.44
  A 0.37 0.36 -90.0 0 1 1415.66 430.81
  L 1380.51 431.00
  L 1377.37 431.00
  L 995.96 430.77
  A 0.38 0.38 0.0 0 1 995.58 430.39
  L 995.58 78.87
  A 0.34 0.34 0.0 0 1 995.92 78.53
  L 1265.93 78.53
  A 0.26 0.26 0.0 0 1 1266.19 78.79
  L 1266.19 273.67
  A 0.73 0.73 0.0 0 1 1265.46 274.40
  L 1150.70 274.40
  A 0.57 0.57 0.0 0 1 1150.13 273.83
  L 1150.13 196.99
  A 0.87 0.87 0.0 0 0 1149.26 196.12
  L 1112.08 196.12
  A 0.38 0.37 -0.0 0 0 1111.70 196.49
  L 1111.70 312.68
  A 0.55 0.54 90.0 0 0 1112.24 313.23
  L 1303.91 313.23
  A 0.58 0.58 0.0 0 0 1304.49 312.65
  L 1304.49 40.41
  A 0.80 0.79 90.0 0 0 1303.70 39.61
  L 957.90 39.61
  A 0.58 0.58 0.0 0 0 957.32 40.19
  L 957.32 430.19
  A 0.51 0.51 0.0 0 1 956.81 430.70
  L 922.62 431.00
  L 919.03 431.00
  L 538.38 430.77
  A 0.67 0.67 0.0 0 1 537.71 430.10
  L 537.71 78.92
  A 0.39 0.38 90.0 0 1 538.09 78.53
  L 808.05 78.53
  A 0.33 0.32 -90.0 0 1 808.37 78.86
  L 808.37 274.05
  A 0.36 0.36 0.0 0 1 808.01 274.41
  L 692.72 274.41
  A 0.41 0.40 -90.0 0 1 692.32 274.00
  L 692.32 197.03
  A 0.91 0.91 0.0 0 0 691.41 196.12
  L 654.29 196.12
  A 0.36 0.36 0.0 0 0 653.93 196.48
  L 653.93 312.66
  A 0.57 0.57 0.0 0 0 654.50 313.23
  L 846.18 313.23
  A 0.46 0.46 0.0 0 0 846.64 312.77
  L 846.64 40.30
  A 0.70 0.70 0.0 0 0 845.94 39.60
  L 500.08 39.60
  A 0.61 0.61 0.0 0 0 499.47 40.21
  L 499.47 430.15
  A 0.51 0.51 0.0 0 1 498.96 430.66
  L 462.32 431.00
  L 461.11 431.00
  L 78.08 430.77
  A 0.44 0.44 0.0 0 1 77.64 430.33
  L 77.64 79.07
  A 0.54 0.54 0.0 0 1 78.18 78.53
  L 347.88 78.53
  A 0.25 0.25 0.0 0 1 348.13 78.78
  L 348.13 273.96
  A 0.45 0.45 0.0 0 1 347.68 274.41
  L 232.63 274.41
  A 0.55 0.55 0.0 0 1 232.08 273.86
  L 232.08 196.84
  A 0.72 0.72 0.0 0 0 231.36 196.12
  L 194.20 196.12
  A 0.32 0.31 90.0 0 0 193.89 196.44
  L 193.89 312.57
  A 0.66 0.66 0.0 0 0 194.55 313.23
  L 385.96 313.23
  A 0.57 0.57 0.0 0 0 386.53 312.66
  L 386.53 40.36
  A 0.76 0.75 0.0 0 0 385.77 39.61
  L 40.06 39.61
  A 0.60 0.60 0.0 0 0 39.46 40.21
  L 39.46 430.17
  A 0.61 0.61 0.0 0 1 38.85 430.78
  L 0.81 430.77
  A 0.38 0.37 -0.0 0 1 0.43 430.40
  L 0.43 0.71
  A 0.26 0.26 0.0 0 1 0.69 0.45
  L 424.80 0.45
  A 0.55 0.55 0.0 0 1 425.35 1.00
  L 425.35 352.14
  A 0.50 0.50 0.0 0 1 424.85 352.64
  L 155.68 352.64
  A 0.91 0.91 0.0 0 1 154.77 351.73
  L 154.77 157.05
  A 0.26 0.25 -0.0 0 1 155.03 156.80
  L 270.53 156.80
  A 0.47 0.46 -0.0 0 1 271.00 157.26
  L 271.00 234.50
  A 0.66 0.66 0.0 0 0 271.66 235.16
  L 308.62 235.16
  A 0.65 0.65 0.0 0 0 309.27 234.51
  L 309.27 119.01
  A 0.89 0.88 90.0 0 0 308.39 118.12
  L 117.07 118.12
  A 0.39 0.39 0.0 0 0 116.68 118.51
  L 116.68 391.00
  A 0.60 0.59 -0.0 0 0 117.28 391.59
  L 459.94 391.59
  A 0.71 0.71 0.0 0 0 460.65 390.88
  L 460.65 0.79
  A 0.37 0.36 0.0 0 1 461.02 0.43
  L 885.17 0.43
  A 0.38 0.38 0.0 0 1 885.55 0.81
  L 885.55 352.05
  A 0.61 0.61 0.0 0 1 884.94 352.66
  L 616.00 352.66
  A 0.91 0.91 0.0 0 1 615.09 351.75
  L 615.09 157.30
  A 0.51 0.51 0.0 0 1 615.60 156.79
  L 730.50 156.79
  A 0.64 0.64 0.0 0 1 731.14 157.43
  Q 731.12 173.88 731.13 234.54
  A 0.86 0.85 0.3 0 0 731.98 235.39
  Q 732.05 235.39 732.18 235.21
  A 0.38 0.37 17.7 0 1 732.48 235.06
  L 769.04 235.06
  A 0.48 0.48 0.0 0 0 769.52 234.58
  L 769.52 118.59
  A 0.46 0.46 0.0 0 0 769.06 118.13
  L 576.99 118.13
  A 0.29 0.28 0.0 0 0 576.70 118.41
  L 576.70 391.01
  A 0.58 0.58 0.0 0 0 577.28 391.59
  L 917.68 391.59
  A 0.81 0.80 90.0 0 0 918.48 390.78
  L 918.48 0.99
  A 0.56 0.56 0.0 0 1 919.04 0.43
  L 1343.11 0.43
  A 0.34 0.34 0.0 0 1 1343.45 0.77
  L 1343.45 352.06
  A 0.59 0.59 0.0 0 1 1342.86 352.65
  L 1073.55 352.65
  A 0.72 0.71 -90.0 0 1 1072.84 351.93
  L 1072.84 157.36
  A 0.57 0.56 -90.0 0 1 1073.40 156.79
  L 1188.66 156.80
  A 0.29 0.28 0.0 0 1 1188.95 157.08
  L 1188.95 234.20
  A 1.00 1.00 0.0 0 0 1189.95 235.20
  L 1226.78 235.20
  A 0.62 0.61 -0.0 0 0 1227.40 234.59
  L 1227.40 118.82
  A 0.70 0.70 0.0 0 0 1226.70 118.12
  L 1034.76 118.12
  A 0.19 0.18 90.0 0 0 1034.58 118.31
  L 1034.58 390.98
  A 0.60 0.60 0.0 0 0 1035.18 391.58
  L 1376.60 391.58
  A 0.60 0.60 0.0 0 0 1377.20 390.98
  Q 1377.06 215.48 1377.17 1.46
  Q 1377.17 1.31 1377.09 1.21
  Q 1376.95 1.02 1376.98 0.94
  Q 1377.18 0.43 1377.58 0.43
  Q 1598.01 0.42 1801.09 0.44
  A 0.98 0.97 0.0 0 1 1802.07 1.41
  L 1802.07 352.03
  A 0.62 0.61 -0.0 0 1 1801.45 352.64
  L 1532.37 352.64
  A 0.79 0.78 -0.0 0 1 1531.58 351.86
  L 1531.58 157.36
  A 0.57 0.57 0.0 0 1 1532.15 156.79
  L 1647.16 156.79
  A 0.45 0.45 0.0 0 1 1647.61 157.24
  L 1647.61 234.63
  A 0.53 0.53 0.0 0 0 1648.14 235.16
  L 1685.30 235.16
  A 0.82 0.82 0.0 0 0 1686.12 234.34
  L 1686.12 118.69
  A 0.91 0.91 0.0 0 0 1685.21 117.78
  L 1493.63 117.78
  A 0.50 0.50 0.0 0 0 1493.13 118.28
  L 1493.13 390.69
  A 0.90 0.90 0.0 0 0 1494.03 391.59
  L 1839.48 391.59
  A 0.78 0.78 0.0 0 0 1840.26 390.81
  L 1840.26 0.71
  A 0.28 0.28 0.0 0 1 1840.54 0.43
  L 2264.67 0.43
  A 0.50 0.50 0.0 0 1 2265.17 0.93
  L 2265.17 351.89
  A 0.75 0.75 0.0 0 1 2264.42 352.64
  L 1995.49 352.64
  A 0.90 0.90 0.0 0 1 1994.59 351.74
  L 1994.59 157.35
  A 0.56 0.55 -0.0 0 1 1995.15 156.80
  L 2110.28 156.80
  A 0.60 0.59 0.0 0 1 2110.88 157.39
  L 2110.88 234.24
  A 0.89 0.89 0.0 0 0 2111.77 235.13
  L 2148.46 235.13
  A 0.61 0.61 0.0 0 0 2149.07 234.52
  L 2149.07 118.35
  A 0.57 0.56 -90.0 0 0 2148.51 117.78
  L 1956.59 117.78
  A 0.29 0.28 -90.0 0 0 1956.31 118.07
  L 1956.31 391.09
  A 0.50 0.49 90.0 0 0 1956.80 391.59
  L 2302.65 391.59
  A 0.82 0.81 -90.0 0 0 2303.46 390.77
  L 2303.46 0.81
  A 0.38 0.38 0.0 0 1 2303.84 0.43
  L 2727.95 0.43
  A 0.50 0.49 -0.0 0 1 2728.45 0.92
  L 2728.45 351.74
  A 0.91 0.90 0.0 0 1 2727.54 352.64
  L 2458.88 352.64
  A 1.00 1.00 0.0 0 1 2457.88 351.64
  L 2457.88 157.34
  A 0.54 0.54 0.0 0 1 2458.42 156.80
  L 2573.47 156.80
  A 0.55 0.55 0.0 0 1 2574.02 157.35
  L 2574.02 234.23
  A 0.91 0.91 0.0 0 0 2574.93 235.14
  L 2611.67 235.14
  A 0.71 0.70 90.0 0 0 2612.37 234.43
  L 2612.37 118.25
  A 0.47 0.47 0.0 0 0 2611.90 117.78
  L 2420.17 117.78
  A 0.66 0.66 0.0 0 0 2419.51 118.44
  L 2419.51 390.77
  A 0.81 0.81 0.0 0 0 2420.32 391.58
  L 2766.03 391.58
  A 0.60 0.59 90.0 0 0 2766.62 390.98
  L 2766.62 1.06
  A 0.66 0.65 -0.0 0 1 2767.28 0.41
  L 3191.34 0.41
  A 0.59 0.59 0.0 0 1 3191.93 1.00
  L 3191.93 352.03
  A 0.61 0.60 -90.0 0 1 3191.33 352.64
  L 2921.83 352.64
  A 0.39 0.39 0.0 0 1 2921.44 352.25
  L 2921.44 157.13
  A 0.34 0.33 90.0 0 1 2921.77 156.79
  L 3037.13 156.79
  A 0.38 0.37 -90.0 0 1 3037.50 157.17
  L 3037.50 234.79
  A 0.36 0.33 -74.2 0 0 3037.65 235.08
  Q 3038.05 235.36 3038.64 235.06
  A 0.78 0.76 -58.3 0 1 3039.00 234.97
  L 3074.87 235.26
  A 0.86 0.85 0.3 0 0 3075.74 234.41
  L 3075.74 118.99
  A 0.86 0.86 0.0 0 0 3074.88 118.13
  L 2883.74 118.13
  A 0.61 0.61 0.0 0 0 2883.13 118.74
  L 2883.13 390.87
  A 0.72 0.72 0.0 0 0 2883.85 391.59
  L 3226.18 391.59
  A 0.81 0.81 0.0 0 0 3226.99 390.78
  L 3226.99 0.91
  A 0.48 0.48 0.0 0 1 3227.47 0.43
  L 3651.42 0.43
  A 0.51 0.51 0.0 0 1 3651.93 0.94
  L 3651.93 352.00
  A 0.65 0.65 0.0 0 1 3651.28 352.65
  L 3382.20 352.65
  A 0.78 0.77 0.0 0 1 3381.42 351.88
  L 3381.42 157.16
  A 0.37 0.37 0.0 0 1 3381.79 156.79
  L 3496.93 156.79
  A 0.62 0.62 0.0 0 1 3497.55 157.41
  L 3497.55 234.62
  A 0.53 0.51 -68.5 0 0 3497.70 234.99
  Q 3498.12 235.43 3498.62 235.11
  Q 3498.88 234.94 3499.42 234.95
  Q 3515.27 235.21 3534.53 234.82
  A 0.21 0.21 0.0 0 1 3534.71 234.92
  L 3534.73 234.97
  A 0.72 0.71 -56.9 0 0 3536.10 234.68
  L 3536.11 118.71
  A 0.61 0.61 0.0 0 0 3535.50 118.10
  L 3343.86 118.10
  A 0.56 0.56 0.0 0 0 3343.30 118.66
  L 3343.30 391.09
  A 0.50 0.50 0.0 0 0 3343.80 391.59
  L 3684.20 391.59
  A 0.81 0.81 0.0 0 0 3685.01 390.78
  L 3685.01 0.92
  A 0.49 0.49 0.0 0 1 3685.50 0.43
  L 4109.11 0.43
  A 0.88 0.88 0.0 0 1 4109.99 1.31
  L 4109.99 352.05
  A 0.59 0.59 0.0 0 1 4109.40 352.64
  L 3840.44 352.64
  A 0.92 0.91 -0.0 0 1 3839.52 351.73
  L 3839.52 157.07
  A 0.28 0.28 0.0 0 1 3839.80 156.79
  L 3955.16 156.79
  A 0.42 0.42 0.0 0 1 3955.58 157.21
  L 3955.58 234.43
  A 0.65 0.65 0.0 0 0 3956.23 235.08
  L 3993.25 235.08
  A 0.60 0.60 0.0 0 0 3993.85 234.48
  L 3993.85 118.37
  A 0.25 0.24 0.0 0 0 3993.60 118.13
  L 3801.61 118.13
  A 0.46 0.45 -0.0 0 0 3801.15 118.58
  L 3801.15 390.87
  A 0.72 0.71 -0.0 0 0 3801.87 391.58
  L 4142.73 391.58
  A 0.77 0.77 0.0 0 0 4143.50 390.81
  L 4143.50 0.69
  A 0.24 0.24 0.0 0 1 4143.74 0.45
  L 4567.90 0.45
  A 0.57 0.57 0.0 0 1 4568.47 1.02
  L 4568.47 351.70
  A 0.94 0.94 0.0 0 1 4567.53 352.64
  L 4298.76 352.64
  A 0.82 0.81 -90.0 0 1 4297.95 351.82
  L 4297.95 157.31
  A 0.51 0.51 0.0 0 1 4298.46 156.80
  L 4413.60 156.79
  A 0.41 0.40 -90.0 0 1 4414.00 157.20
  L 4414.00 234.55
  A 0.59 0.59 0.0 0 0 4414.59 235.14
  L 4451.31 235.14
  A 1.08 1.08 0.0 0 0 4452.39 234.06
  L 4452.39 118.17
  A 0.39 0.39 0.0 0 0 4452.00 117.78
  L 4260.21 117.78
  A 0.66 0.66 0.0 0 0 4259.55 118.44
  L 4259.55 390.71
  A 0.88 0.88 0.0 0 0 4260.43 391.59
  L 4605.83 391.59
  A 0.96 0.96 0.0 0 0 4606.79 390.63
  L 4606.79 0.79
  A 0.34 0.33 -90.0 0 1 4607.12 0.45
  L 5031.03 0.45
  A 0.66 0.65 90.0 0 1 5031.68 1.11
  L 5031.68 351.63
  A 1.02 1.02 0.0 0 1 5030.66 352.65
  L 4761.88 352.65
  A 0.60 0.60 0.0 0 1 4761.28 352.05
  L 4761.28 157.41
  A 0.62 0.62 0.0 0 1 4761.90 156.79
  L 4876.70 156.79
  A 0.62 0.61 -90.0 0 1 4877.31 157.41
  L 4877.31 234.47
  A 0.65 0.64 90.0 0 0 4877.95 235.12
  L 4914.99 235.12
  A 0.61 0.61 0.0 0 0 4915.60 234.51
  L 4915.60 118.24
  A 0.46 0.46 0.0 0 0 4915.14 117.78
  L 4723.53 117.78
  A 0.63 0.62 0.0 0 0 4722.90 118.40
  L 4722.90 390.73
  A 0.86 0.86 0.0 0 0 4723.76 391.59
  L 5069.27 391.59
  A 0.81 0.80 90.0 0 0 5070.07 390.78
  L 5070.07 1.05
  A 0.63 0.62 0.0 0 1 5070.70 0.43
  L 5494.54 0.43
  A 0.52 0.51 -90.0 0 1 5495.05 0.95
  L 5495.05 351.70
  A 0.94 0.93 -90.0 0 1 5494.12 352.64
  L 5225.19 352.64
  A 0.68 0.67 -90.0 0 1 5224.52 351.96
  L 5224.52 157.36
  A 0.56 0.56 0.0 0 1 5225.08 156.80
  L 5340.05 156.80
  A 0.55 0.55 0.0 0 1 5340.60 157.35
  L 5340.60 234.05
  A 1.13 1.12 0.0 0 0 5341.73 235.17
  L 5378.38 235.17
  A 0.52 0.52 0.0 0 0 5378.90 234.65
  L 5378.90 118.33
  A 0.55 0.55 0.0 0 0 5378.35 117.78
  L 5186.61 117.78
  A 0.44 0.44 0.0 0 0 5186.17 118.22
  L 5186.17 390.89
  A 0.70 0.70 0.0 0 0 5186.87 391.59
  L 5532.71 391.59
  A 0.54 0.54 0.0 0 0 5533.25 391.05
  L 5533.25 0.66
  A 0.25 0.25 0.0 0 1 5533.50 0.41
  L 5957.77 0.41
  A 0.53 0.53 0.0 0 1 5958.30 0.94
  L 5958.30 352.13
  A 0.52 0.51 0.0 0 1 5957.78 352.64
  L 5688.77 352.64
  A 1.08 1.08 0.0 0 1 5687.69 351.56
  L 5687.69 157.36
  A 0.57 0.56 0.0 0 1 5688.26 156.80
  L 5803.33 156.80
  A 0.54 0.53 -0.0 0 1 5803.87 157.33
  L 5803.87 234.78
  A 0.31 0.30 0.0 0 0 5804.18 235.08
  L 5840.63 235.08
  A 0.06 0.06 0.0 0 1 5840.68 235.17
  Q 5840.59 235.35 5840.91 235.37
  A 1.29 1.01 1.3 0 0 5842.25 234.37
  Q 5842.26 185.64 5842.26 118.59
  A 0.47 0.46 -0.0 0 0 5841.79 118.13
  L 5649.85 118.13
  A 0.42 0.41 0.0 0 0 5649.43 118.54
  L 5649.43 390.80
  A 0.79 0.79 0.0 0 0 5650.22 391.59
  L 5992.75 391.59
  A 0.86 0.85 90.0 0 0 5993.60 390.73
  L 5993.60 0.82
  A 0.40 0.39 -0.0 0 1 5994.00 0.43
  L 6418.03 0.43
  A 0.53 0.53 0.0 0 1 6418.56 0.96
  L 6418.56 351.81
  A 0.84 0.84 0.0 0 1 6417.72 352.65
  L 6148.79 352.65
  A 0.72 0.72 0.0 0 1 6148.07 351.93
  L 6148.07 157.28
  A 0.49 0.49 0.0 0 1 6148.56 156.79
  L 6263.52 156.79
  A 0.45 0.45 0.0 0 1 6263.97 157.24
  L 6263.97 234.34
  A 0.83 0.83 0.0 0 0 6264.80 235.17
  L 6301.85 235.17
  A 0.67 0.67 0.0 0 0 6302.52 234.50
  L 6302.52 118.58
  A 0.46 0.46 0.0 0 0 6302.06 118.12
  L 6109.89 118.12
  A 0.24 0.23 -90.0 0 0 6109.66 118.36
  L 6109.66 391.04
  A 0.55 0.55 0.0 0 0 6110.21 391.59
  L 6450.67 391.59
  A 0.78 0.77 -90.0 0 0 6451.44 390.81
  L 6451.44 0.82
  A 0.39 0.39 0.0 0 1 6451.83 0.43
  L 6875.91 0.43
  A 0.47 0.46 90.0 0 1 6876.37 0.90
  L 6876.37 352.05
  A 0.60 0.59 0.0 0 1 6875.77 352.64
  L 6606.69 352.64
  A 0.96 0.95 -0.0 0 1 6605.73 351.69
  L 6605.73 157.34
  A 0.55 0.54 -0.0 0 1 6606.28 156.80
  L 6721.40 156.80
  A 0.52 0.52 0.0 0 1 6721.92 157.32
  L 6721.92 234.73
  A 0.43 0.43 0.0 0 0 6722.35 235.16
  L 6759.39 235.16
  A 0.98 0.98 0.0 0 0 6760.37 234.18
  L 6760.37 118.97
  A 0.85 0.84 -0.0 0 0 6759.52 118.13
  L 6567.92 118.13
  A 0.43 0.43 0.0 0 0 6567.49 118.56
  L 6567.49 391.03
  A 0.56 0.55 90.0 0 0 6568.04 391.59
  L 6911.50 391.59
  A 0.85 0.85 0.0 0 0 6912.35 390.74
  L 6912.35 0.87
  A 0.44 0.44 0.0 0 1 6912.79 0.43
  L 7271.32 0.43
  A 0.47 0.47 0.0 0 1 7271.79 0.90
  L 7271.79 38.95
  A 0.66 0.66 0.0 0 1 7271.13 39.61
  L 6951.97 39.61
  A 0.79 0.79 0.0 0 0 6951.18 40.40
  L 6951.18 430.27
  A 0.50 0.50 0.0 0 1 6950.68 430.77
  L 6529.03 430.77
  A 0.39 0.38 90.0 0 1 6528.65 430.38
  L 6528.65 79.08
  A 0.55 0.54 90.0 0 1 6529.19 78.53
  L 6798.54 78.53
  A 0.60 0.59 -90.0 0 1 6799.13 79.13
  L 6799.13 273.86
  A 0.55 0.54 -90.0 0 1 6798.59 274.41
  L 6683.61 274.41
  A 0.52 0.51 -90.0 0 1 6683.10 273.89
  L 6683.10 196.84
  A 0.71 0.70 0.0 0 0 6682.39 196.14
  L 6645.02 196.14
  A 0.33 0.33 0.0 0 0 6644.69 196.47
  L 6644.69 312.69
  A 0.54 0.54 0.0 0 0 6645.23 313.23
  L 6837.04 313.23
  A 0.49 0.49 0.0 0 0 6837.53 312.74
  L 6837.53 40.13
  A 0.53 0.53 0.0 0 0 6837.00 39.60
  L 6490.94 39.60
  A 0.67 0.67 0.0 0 0 6490.27 40.27
  L 6490.27 430.19
  A 0.51 0.51 0.0 0 1 6489.76 430.70
  L 6455.62 431.00
  Z"
/>
<path fill="#ffffff" fill-opacity="0.541" d="
  M 7067.44 156.79
  L 7182.31 156.80
  A 0.49 0.49 0.0 0 1 7182.80 157.29
  L 7182.80 234.35
  A 0.47 0.47 0.0 0 0 7183.27 234.82
  L 7220.62 234.82
  A 0.53 0.52 -90.0 0 0 7221.14 234.29
  L 7221.14 118.64
  A 0.51 0.50 90.0 0 0 7220.64 118.13
  L 7028.72 118.13
  A 0.35 0.35 0.0 0 0 7028.37 118.48
  L 7028.37 390.82
  A 0.77 0.76 0.0 0 0 7029.14 391.58
  L 7271.11 391.58
  A 0.68 0.68 0.0 0 1 7271.79 392.26
  L 7271.79 430.18
  A 0.59 0.58 90.0 0 1 7271.21 430.77
  L 6989.85 430.77
  A 0.39 0.39 0.0 0 1 6989.46 430.38
  L 6989.46 78.85
  A 0.32 0.32 0.0 0 1 6989.78 78.53
  L 7259.60 78.53
  A 0.57 0.57 0.0 0 1 7260.17 79.08
  Q 7260.20 80.20 7259.91 81.60
  A 0.35 0.31 -41.4 0 0 7259.90 81.68
  L 7259.93 273.76
  A 0.65 0.65 0.0 0 1 7259.28 274.41
  L 7144.25 274.41
  A 0.34 0.33 0.0 0 1 7143.91 274.08
  L 7143.91 196.97
  A 0.86 0.85 90.0 0 0 7143.06 196.11
  L 7106.08 196.11
  A 0.56 0.55 90.0 0 0 7105.53 196.67
  L 7105.53 312.53
  A 0.69 0.69 0.0 0 0 7106.22 313.22
  L 7271.35 313.22
  A 0.45 0.44 90.0 0 1 7271.79 313.67
  L 7271.79 351.83
  A 0.83 0.82 0.0 0 1 7270.96 352.65
  L 7067.49 352.65
  A 0.72 0.71 -0.0 0 1 7066.77 351.94
  L 7066.77 157.46
  A 0.67 0.67 0.0 0 1 7067.44 156.79
  Z"
/>
</svg>
