<svg xmlns="http://www.w3.org/2000/svg" viewBox="0 0 1440 24" preserveAspectRatio="none">
  <path d="M0,0 L1440,0 L1440,5 C1416,6 1392,3 1368,4 C1344,5 1320,2 1296,3 C1272,4 1248,2 1224,1 C1200,0 1176,3 1152,2 C1128,1 1104,3 1080,4 C1056,5 1032,3 1008,2 C984,1 960,4 936,3 C912,2 888,5 864,4 C840,3 816,5 792,6 C768,7 744,4 720,5 C696,6 672,3 648,4 C624,5 600,8 576,7 C552,6 528,9 504,8 C480,7 456,9 432,10 C408,11 384,8 360,9 C336,10 312,13 288,12 C264,11 240,13 216,15 C192,17 168,14 144,16 C120,18 96,21 72,20 C48,19 24,22 0,24 Z" fill="currentColor"/>
</svg>
