<?xml version="1.0" encoding="UTF-8"?>
<svg id="_x3C_Layer_x3E_" xmlns="http://www.w3.org/2000/svg" version="1.1" viewBox="0 0 94.52 94.52">
  <!-- Generator: Adobe Illustrator 30.0.0, SVG Export Plug-In . SVG Version: 2.1.1 Build 123)  -->
  <defs>
    <style>
      .st0 {
        fill: #fafdff;
      }

      .st1 {
        fill: #8ab5e0;
      }

      .st2 {
        fill: #5e80b0;
      }

      .st3 {
        fill: #acd1eb;
      }
    </style>
  </defs>
  <circle cx="47.26" cy="47.26" r="47.26"/>
  <g>
    <path class="st3" d="M91.57,47.26v-.61h0c-.04-2.89-.36-5.78-.96-8.6-.6-2.83-1.48-5.6-2.62-8.26h0s-.25-.56-.25-.56c0,0,0,0,0,0,0,0,0,0,0,0l-.25-.56h0c-1.2-2.6-2.68-5.11-4.39-7.46-.91-1.24-1.89-2.45-2.92-3.6-.1-.12-.2-.23-.3-.33l-.48-.52h0c-.2-.21-.4-.42-.59-.62l-.21-.21h-.01c-.08-.08-.15-.16-.22-.23-.2-.19-.4-.39-.6-.58l-.4-.37h0s-.27-.25-.27-.25c-.05-.05-.11-.1-.16-.15l-.02-.02s0,0,0,0c0,0,0,0,0,0h0c-2.3-2.07-4.81-3.9-7.48-5.44-2.49-1.44-5.14-2.65-7.89-3.58h0s-.58-.19-.58-.19c0,0,0,0,0,0l-.58-.19h0c-2.76-.85-5.61-1.43-8.49-1.73-2.86-.3-5.77-.32-8.64-.06h0s-.61.06-.61.06c0,0,0,0,0,0l-.61.06h0c-2.87.34-5.72.97-8.46,1.86-2.76.9-5.43,2.06-7.94,3.47h0s-.53.3-.53.3c0,0,0,0-.01,0l-.52.3h0c-2.47,1.48-4.81,3.21-6.96,5.14-.12.1-.23.2-.33.3l-.52.48h0c-.21.2-.41.4-.61.6l-.21.21h-.01c-.07.08-.15.16-.22.23-.19.2-.39.4-.58.6l-.48.51c-.1.11-.21.22-.31.34-.89.99-1.75,2.04-2.55,3.11h0s-.36.49-.36.49c0,0,0,0,0,0l-.36.49h0c-1.68,2.38-3.12,4.91-4.28,7.53-1.18,2.64-2.1,5.41-2.73,8.23h0s-.13.59-.13.59c0,0,0,0,0,0,0,0,0,0,0,0l-.13.6h0c-.56,2.82-.84,5.72-.84,8.61,0,2.89.28,5.79.84,8.61h0s.13.6.13.6c0,0,0,0,0,0,0,0,0,0,0,0l.13.6h0c.64,2.82,1.56,5.58,2.73,8.22,1.16,2.62,2.6,5.15,4.28,7.52h0s.36.49.36.49c0,0,0,0,0,0l.36.49h0c.8,1.07,1.66,2.11,2.55,3.1.1.12.21.23.31.34l.48.51h0c.2.21.4.42.59.61l.21.22.23.22c.2.19.4.4.61.59l.52.48c.11.1.22.21.34.31,2.15,1.93,4.48,3.66,6.96,5.14h0s.53.31.53.31c0,0,0,0,0,0l.52.3h0c2.51,1.4,5.18,2.57,7.94,3.47,2.75.89,5.59,1.51,8.46,1.85h0s.6.07.6.07c0,0,0,0,0,0l.61.06h0c1.33.12,2.67.18,4.01.18,1.54,0,3.09-.08,4.62-.24,2.88-.3,5.73-.88,8.49-1.74h0s.58-.18.58-.18c0,0,0,0,0,0l.58-.19h0c2.75-.94,5.4-2.14,7.89-3.59,2.67-1.54,5.18-3.37,7.48-5.44h0s0,0,0,0c0,0,0,0,0,0h.02c.06-.06.11-.11.17-.16l.27-.24h0s.4-.37.4-.37h0c.2-.2.41-.4.61-.59.07-.07.15-.14.22-.21h.01c.07-.08.14-.16.21-.23.19-.2.39-.4.59-.61l.48-.52c.1-.11.21-.22.31-.34,1.03-1.14,2.01-2.35,2.92-3.6,1.71-2.35,3.19-4.86,4.39-7.46h0s.25-.55.25-.55c0,0,0,0,0,0l.25-.55h0c1.14-2.66,2.02-5.44,2.62-8.26.6-2.81.92-5.7.96-8.6h0v-.61h0ZM86.63,64.79c-1.21,2.73-2.73,5.35-4.51,7.8-.88,1.21-1.84,2.39-2.84,3.5h0c-.09.11-.19.21-.29.32l-.47.51c-.19.2-.38.4-.57.59-.07.07-.14.14-.21.21-.07.07-.14.14-.22.21-.19.19-.39.39-.59.57l-.51.47s-.09.09-.14.13l-.18.16s0,0,0,0l-.45.39h0c-2.11,1.85-4.41,3.5-6.83,4.9-2.59,1.5-5.36,2.73-8.23,3.67h0c-2.86.93-5.83,1.56-8.82,1.87-2.98.31-6.01.31-8.99,0h0c-2.99-.31-5.96-.94-8.82-1.87-2.87-.93-5.65-2.17-8.23-3.67h0c-2.6-1.5-5.05-3.29-7.28-5.3h0c-.1-.1-.21-.19-.31-.29l-.51-.47c-.2-.19-.4-.39-.59-.58l-.21-.21-.21-.21c-.19-.19-.39-.4-.58-.59l-.48-.51c-.1-.11-.19-.21-.29-.31h0c-1-1.12-1.96-2.3-2.84-3.51h0c-1.78-2.45-3.3-5.07-4.51-7.8-1.23-2.75-2.16-5.64-2.79-8.58-.62-2.93-.94-5.94-.94-8.95,0-3.01.31-6.02.93-8.95.62-2.94,1.56-5.83,2.79-8.58,1.21-2.73,2.73-5.35,4.51-7.8h0c.88-1.22,1.83-2.39,2.83-3.5h0c.09-.11.19-.21.29-.32l.47-.51c.19-.2.38-.4.57-.59.07-.07.14-.15.21-.22l.21-.2c.2-.19.4-.39.6-.58l.51-.48c.11-.1.21-.19.31-.28h0c2.23-2.02,4.68-3.8,7.28-5.3h0c2.59-1.5,5.36-2.74,8.24-3.67,2.86-.93,5.82-1.56,8.82-1.87h0c2.98-.31,6.01-.31,8.99,0,3,.31,5.96.94,8.82,1.87h0c2.87.93,5.64,2.17,8.23,3.67,2.42,1.4,4.72,3.05,6.83,4.9h0s.46.4.46.4l.18.16s.09.09.14.13l.51.47c.2.19.39.38.59.57.07.07.15.14.22.22l.2.21c.19.2.39.4.58.6l.48.51c.1.11.19.21.28.31h0c1,1.12,1.96,2.3,2.84,3.51,1.78,2.45,3.3,5.07,4.51,7.8h0c1.23,2.75,2.16,5.64,2.79,8.58.62,2.93.94,5.94.94,8.95,0,3.01-.31,6.02-.93,8.95-.62,2.94-1.56,5.83-2.79,8.58Z"/>
    <path class="st0" d="M84.01,46.31l-.04-.95-.05-.75c0-.07,0-.14-.01-.21l-.03-.32c0-.07-.01-.15-.02-.22-.01-.14-.02-.27-.04-.41h0c-.01-.13-.03-.24-.04-.36-.01-.1-.02-.2-.03-.3l1.29-.18c.01.12.03.24.04.36.01.12.03.24.04.36.01.14.03.29.04.43,0,.08.01.15.02.23l.03.33.06.94,3.73-.25-.06-.96-.05-.6c-.01-.17-.03-.33-.05-.5h0c-.01-.13-.03-.25-.04-.38-.04-.35-.08-.71-.13-1.08-.12-.87-.28-1.81-.5-2.87l-.12-.6-4.93,1.04v-.03c-.04-.14-.07-.27-.1-.41-.02-.07-.04-.14-.05-.22l-.07-.31-.25-.93v-.02c-.04-.11-.07-.21-.1-.32-.09-.29-.18-.6-.28-.9l-.1-.29c-.04-.12-.07-.22-.11-.32v-.03s1.21-.44,1.21-.44l.02.06c.03.09.07.19.1.3l.1.32h0c.1.31.2.64.29.95.03.11.06.22.1.33l.17.58,3.59-1.02-.18-.59c-.03-.11-.06-.21-.09-.32-.1-.35-.21-.72-.33-1.07l-.11-.34c-.04-.13-.08-.25-.12-.36l-.24-.68c-.06-.16-.12-.31-.17-.46-.03-.07-.06-.15-.08-.22l-.13-.34c-.03-.08-.06-.15-.09-.23-.02-.04-.03-.07-.05-.11l-.27-.67-.07-.16h.01s-.5-1.12-.5-1.12l-4.61,2.06c-.3-.65-.58-1.21-.86-1.73l-.15-.28-.16-.29c-.04-.06-.07-.13-.11-.19-.07-.12-.13-.24-.2-.36l-.13-.22c-.07-.12-.14-.23-.21-.35l1.1-.69c.08.14.16.27.24.41l.13.21c.07.13.14.25.21.38.04.07.08.13.11.2l.16.29.44.83,3.3-1.75-.45-.86-.18-.33c-.04-.07-.07-.13-.11-.2-.08-.14-.16-.29-.24-.43l-.12-.21c-.2-.34-.41-.7-.63-1.04-.2-.33-.42-.66-.63-.98-.05-.08-.11-.16-.16-.24l-.42-.61s-.05-.07-.07-.1c-.05-.07-.09-.13-.14-.2l-.57-.78-4.08,2.96c-.37-.49-.77-1-1.22-1.53-.38-.46-.8-.93-1.3-1.47l.94-.9c.52.56.96,1.05,1.35,1.53l.39.47,2.86-2.4-.39-.47c-1.11-1.33-2.33-2.61-3.63-3.81h0s-.9-.83-.9-.83l-3.38,3.75-.02-.02c-.11-.09-.21-.18-.32-.27-.06-.05-.11-.09-.17-.14l-.24-.2-.26-.21c-.06-.05-.11-.09-.17-.14-.11-.09-.21-.17-.32-.26-.5-.39-1.02-.78-1.56-1.15l.73-1.08c.56.39,1.11.8,1.65,1.22l.48.37,2.3-2.94-.48-.38c-.76-.6-1.56-1.17-2.36-1.72-.89-.6-1.7-1.1-2.47-1.55l-.53-.3-2.53,4.36c-1.16-.64-2.33-1.22-3.51-1.72l.49-1.21c.58.25,1.2.53,1.86.85l.55.27,1.64-3.35-.55-.27c-.97-.47-1.84-.86-2.66-1.19l-.34-.14c-.08-.03-.15-.06-.23-.09l-.79-.3h-.01c-.11-.04-.21-.08-.32-.12-.17-.06-.34-.12-.52-.18h0s-1.16-.39-1.16-.39l-1.56,4.8c-.13-.04-.26-.08-.39-.12-.08-.02-.16-.05-.24-.07-.14-.04-.27-.08-.4-.11-.07-.02-.14-.04-.21-.06l-.31-.08c-.07-.02-.14-.03-.21-.05-.04,0-.07-.02-.11-.03l-.61-.15-.63-.14s-.07-.01-.1-.02c-.07-.02-.14-.03-.21-.05l-.31-.06s-.02,0-.02,0l.23-1.28s.04,0,.06.01l.33.06c.07.01.14.03.21.04.04,0,.08.02.11.02l.65.14,1.24.3.9-3.62-1.29-.32-.83-.18c-.08-.02-.16-.04-.25-.05l-.36-.07c-.08-.01-.16-.03-.23-.04-.16-.03-.32-.06-.49-.09l-.25-.04c-.39-.06-.79-.13-1.18-.18l-.53-.07-1.52-.17-.53,5.02c-.75-.07-1.37-.1-1.95-.12h-.32c-.07-.01-.15-.02-.22-.02-.04,0-.07,0-.11,0h-.64s-.67,0-.67,0l-.04-1.3h.72s.66,0,.66,0c.04,0,.08,0,.12,0,.07,0,.14,0,.2,0l.95.04.13-3.73-.97-.04c-.08,0-.17,0-.25,0-.04,0-.08,0-.12,0h-.72s-1.08,0-1.08,0l-1.09.04-1.09.07-.37.03c-.05,0-.11,0-.16.01h0s-1.21.11-1.21.11l.52,5.02c-.22.03-.44.05-.66.09l-.3.04c-.1.01-.21.03-.33.05l-.61.1h0c-.73.13-1.34.26-1.9.38l-.31-1.26c.6-.14,1.25-.27,2.01-.41l.6-.11-.64-3.68-.6.11c-1.11.2-2.02.39-2.85.6l-.35.09-1.06.29h-.01c-.11.04-.22.07-.32.1-.35.1-.71.21-1.07.33l-.57.19,1.55,4.79s-.02,0-.04.01l-.6.21c-.14.05-.27.1-.4.15-.07.03-.14.05-.21.08l-.3.11c-.07.03-.13.05-.2.08-.03.01-.07.03-.1.04l-.58.24-.59.26c-.16.07-.32.14-.48.22l-.14.07-.57-1.17.17-.08c.17-.08.32-.15.49-.22l.61-.27,1.18-.48-1.4-3.46-1.23.51-.67.29c-.19.08-.38.17-.56.25l-.6.28-.82.41c-.15.08-.3.15-.44.23-.07.04-.14.07-.21.11l-.32.17-.33.18s-.09.05-.14.08h0s-1.05.6-1.05.6l2.53,4.37c-.53.32-1.06.66-1.63,1.04h0c-.57.4-1.09.77-1.57,1.13l-.8-1.02c.51-.39,1.06-.78,1.67-1.19l.5-.34-2.09-3.1-.51.34c-.87.6-1.64,1.16-2.35,1.71-.13.1-.26.2-.38.3-.06.05-.12.1-.19.15l-.28.23c-.06.05-.13.11-.19.16-.03.03-.06.05-.09.08l-.55.46-1.01.89,3.37,3.75c-.54.5-.99.94-1.4,1.37-.49.5-.92.98-1.32,1.44l-.99-.84c.42-.48.88-.98,1.39-1.51l.42-.44-2.68-2.6-.42.44c-.73.76-1.37,1.47-1.95,2.16l-.23.28c-.05.06-.1.13-.15.19-.03.03-.05.06-.08.1l-.45.56-.17.23c-.12.16-.25.32-.37.49h0s-.72.98-.72.98l4.08,2.97c-.06.09-.12.17-.18.26-.07.09-.13.19-.2.28l-.36.54s-.04.06-.06.09c-.04.06-.08.12-.12.18l-.16.26c-.33.51-.65,1.06-.99,1.67l-1.15-.61c.36-.64.7-1.22,1.04-1.76l.33-.52-3.17-1.99-.32.51c-1.02,1.62-1.94,3.35-2.75,5.15l-.25.56,4.6,2.06v.03c-.07.13-.12.26-.17.39-.03.07-.06.14-.08.21l-.12.3c-.03.07-.05.13-.08.2-.01.03-.03.07-.04.1l-.22.59v.02c-.04.11-.08.22-.12.32-.1.29-.21.58-.3.89l-.1.29c-.04.12-.07.22-.1.32v.03s-1.26-.36-1.26-.36l.02-.06c.03-.09.06-.19.09-.3l.1-.32h0c.1-.32.21-.63.32-.94.04-.11.08-.22.11-.33l.2-.57-3.51-1.28-.2.58c-.04.11-.08.21-.11.32-.12.34-.25.7-.36,1.06l-.11.34c-.04.13-.08.25-.11.36l-.21.69c-.05.16-.09.32-.13.47-.02.08-.04.15-.06.24l-.09.35c-.02.08-.04.16-.06.25,0,.04-.02.08-.03.12l-.17.7-.04.17h-.01s-.25,1.19-.25,1.19l4.94,1.04v.03c-.02.07-.03.14-.05.21-.03.13-.05.27-.08.42l-.03.21c-.06.34-.12.69-.16,1.04-.05.34-.09.69-.13,1.02l-.03.23c-.02.14-.03.28-.04.42,0,.07-.01.14-.02.22v.03s-1.3-.09-1.3-.09v-.05c.01-.08.02-.16.03-.24.01-.15.02-.28.04-.42l.1-.83.15-1.1-3.7-.52-.09.6c-.26,1.84-.4,3.8-.41,5.81v.61s5.04,0,5.04,0v.35s.04.96.04.96l.06.96.03.33c0,.07.01.14.02.22.01.14.02.28.04.42h0c.01.13.03.25.04.37.01.1.02.2.03.3l-1.29.18c-.01-.12-.03-.24-.04-.36-.01-.12-.03-.24-.04-.36-.01-.15-.03-.29-.04-.44,0-.07-.01-.15-.02-.22l-.03-.33-.06-.94-3.73.25.06.96.05.59c.01.17.03.33.05.5h0c.01.13.03.25.04.37.04.35.08.72.14,1.08.1.72.22,1.48.39,2.32h-.01s.25,1.19.25,1.19l4.94-1.04.23.95.09.32c.02.07.04.14.06.21.04.13.07.27.11.4h0c.03.11.06.21.09.31.09.3.18.61.28.91l.14.44.06.18-1.22.44c-.21-.62-.42-1.26-.62-1.96l-.17-.58-3.6,1.03.18.59c.03.11.06.22.1.32.1.35.21.71.33,1.07l.11.34c.04.13.08.25.12.36l.24.68c.06.16.12.31.17.46.03.07.06.15.08.22l.13.34c.03.08.06.15.09.23.02.04.03.07.05.12l.27.67.54,1.23,4.61-2.05c.3.65.59,1.22.87,1.75l.15.28.16.29c.04.06.07.13.11.19.07.12.14.24.2.36h0c.04.08.09.16.13.23.07.12.14.23.21.35l-1.1.69c-.08-.14-.16-.28-.24-.41l-.12-.21c-.07-.13-.14-.25-.21-.38-.04-.07-.07-.13-.11-.2l-.16-.29-.44-.83-3.3,1.75.45.86.18.33c.04.07.07.13.11.2.08.14.16.29.24.43l.12.21c.2.34.41.7.63,1.04.2.33.42.66.63.97.05.08.11.16.16.25l.42.61s.05.07.07.1c0,.01.02.02.02.03h0s.72.99.72.99l4.08-2.97.4.52c.09.11.18.22.26.33.05.06.09.11.14.17l.2.24.21.25c.38.46.79.93,1.29,1.45l-.94.9c-.52-.56-.96-1.05-1.36-1.53l-.39-.47-2.86,2.4.39.47c1.23,1.47,2.59,2.88,4.04,4.2l.45.41,3.38-3.74c.46.4.96.81,1.51,1.25.51.4,1.04.79,1.57,1.16l-.73,1.08c-.56-.39-1.11-.8-1.65-1.22l-.48-.37-2.3,2.94.48.38c.76.6,1.56,1.17,2.36,1.72.7.47,1.36.89,1.98,1.26h0s1.05.62,1.05.62l2.53-4.37c1.15.64,2.31,1.21,3.48,1.7l-.49,1.2c-.58-.25-1.2-.53-1.86-.85l-.55-.27-1.64,3.35.55.27c.96.47,1.84.86,2.66,1.19l.34.14c.08.03.15.06.23.09l.79.3h.01c.11.04.21.08.32.12.34.12.7.25,1.06.36l.57.18,1.56-4.78c1.22.37,2.49.69,3.8.95l-.23,1.28s-.04,0-.06-.01l-.33-.06c-.07-.01-.14-.03-.2-.04-.04,0-.08-.02-.12-.03l-.65-.14-1.24-.3-.9,3.62,1.29.32.72.16s.08.02.12.03c.08.02.16.04.25.05l.36.07c.08.01.15.03.23.04.16.03.32.06.49.09l.26.04c.39.06.79.13,1.18.18l.53.07.35.04h0s1.21.14,1.21.14l.52-5.02s.02,0,.02,0h.02c.2.02.41.04.62.05l.62.04h0c.14,0,.28.01.41.02.07,0,.15,0,.22,0h.32c.07.01.14.01.22.02.04,0,.07,0,.11,0h.63s.66,0,.66,0l.04,1.3h-.72s-.66,0-.66,0c-.04,0-.08,0-.12,0-.07,0-.13,0-.2,0l-.95-.04-.13,3.73.97.04c.08,0,.17,0,.25,0,.04,0,.08,0,.12,0h.72s0,0,0,0c.17,0,.34,0,.5,0h.58s1.09-.05,1.09-.05l1.09-.07.59-.05c.17-.01.33-.03.5-.05l.61-.06-.52-5.02c.22-.03.45-.05.67-.09.07-.01.14-.02.22-.03.14-.02.28-.04.42-.06l.62-.1h0c.73-.13,1.35-.26,1.92-.39l.31,1.26c-.6.14-1.25.27-2.01.41l-.6.11.64,3.68.6-.11c1.11-.2,2.02-.39,2.85-.6l.35-.09,1.06-.29h.01c.11-.04.21-.07.32-.1.17-.05.35-.1.53-.16h0s1.16-.37,1.16-.37l-1.56-4.8c.13-.04.25-.09.38-.13.08-.03.16-.06.25-.09.13-.05.26-.1.39-.15.07-.03.13-.05.2-.08l.29-.11.88-.36.58-.26c.16-.07.31-.14.46-.21l.15-.07.57,1.17-.17.08c-.17.08-.32.15-.48.22l-.62.27-1.18.48,1.4,3.46,1.23-.51.67-.29c.19-.08.38-.17.56-.25l.6-.28.82-.41c.15-.08.3-.15.44-.23.07-.04.14-.07.21-.11l.32-.17.33-.18c.07-.04.13-.07.2-.11.14-.08.29-.16.43-.24l.53-.3-2.52-4.37c.55-.33,1.1-.68,1.65-1.05h0c.58-.4,1.1-.77,1.59-1.14l.8,1.02c-.51.38-1.06.78-1.67,1.19l-.5.34,2.09,3.1.51-.34c.87-.59,1.64-1.15,2.35-1.71.13-.1.26-.2.38-.3.06-.05.12-.1.19-.15l.28-.23c.06-.05.13-.1.19-.16.03-.03.06-.05.09-.08l.55-.46.13-.11h0s.9-.81.9-.81l-3.38-3.75.1-.1c.13-.12.26-.24.38-.36l.45-.44.45-.46c.48-.5.91-.97,1.31-1.43l.99.84c-.42.48-.88.98-1.39,1.51l-.42.44,2.68,2.6.42-.44c.73-.76,1.37-1.47,1.95-2.16l.23-.28c.05-.06.11-.13.16-.19.02-.03.05-.06.08-.1l.45-.56.17-.23c.24-.31.48-.62.71-.95l.35-.49-4.07-2.97c.07-.11.15-.21.22-.32.05-.08.11-.15.16-.23l.53-.8.17-.28c.33-.52.66-1.07,1-1.69l1.15.61c-.36.64-.7,1.22-1.04,1.76l-.33.52,3.17,1.99.32-.51c.92-1.46,1.76-3.02,2.51-4.63h.01s.5-1.11.5-1.11l-4.61-2.06v-.02c.07-.13.12-.26.17-.39.03-.07.05-.13.08-.2l.12-.29.12-.31c.03-.07.05-.14.08-.21.05-.13.1-.26.15-.38h0c.03-.11.07-.21.11-.31.1-.29.21-.59.31-.9l.14-.44.06-.19,1.25.36-.02.06c-.03.09-.06.18-.09.3l-.11.33c-.1.31-.21.62-.32.93-.04.11-.08.22-.12.33l-.2.57,3.51,1.28.2-.58c.04-.11.08-.21.11-.32.12-.34.25-.7.36-1.05l.11-.34c.05-.14.08-.25.11-.36l.21-.69c.05-.16.09-.32.13-.47.02-.08.04-.15.06-.23.06-.22.13-.47.18-.71l.17-.7.29-1.32-4.93-1.05v-.04c.02-.07.03-.14.05-.22.03-.13.05-.27.08-.42.01-.09.03-.18.05-.27.05-.32.11-.65.15-.99l.07-.47.09-.8c.02-.14.03-.29.04-.42,0-.07.01-.14.02-.22v-.03s1.3.09,1.3.09v.05c-.01.08-.02.16-.03.24-.01.15-.02.28-.04.42l-.09.83-.15,1.1,3.7.52.09-.6c.24-1.67.37-3.43.4-5.25h.01v-1.22h-5.05v-.34ZM87.52,52.34l-1.29-.18.09-.75c.02-.16.03-.31.04-.46,0-.08.01-.15.02-.23v-.14c.03-.18.04-.37.06-.56l.03-.6-3.73-.26-.03.62c0,.15-.02.31-.04.47v.13c-.02.08-.03.15-.03.23-.01.13-.02.26-.04.39l-.09.78-.07.47c-.04.31-.09.64-.15.95-.02.09-.03.19-.05.27-.02.13-.05.25-.07.39-.01.08-.03.15-.04.22l-.06.31c-.01.06-.03.13-.04.19,0,.04-.02.07-.02.11l-.13.6,4.92,1.05-.19.79c-.05.23-.12.47-.18.67-.02.08-.04.16-.06.24-.04.15-.08.3-.12.44l-.21.69c-.03.09-.06.2-.1.33l-.11.34h0c-.08.26-.17.51-.26.77l-1.22-.45c.08-.24.17-.48.24-.73l.1-.32c.04-.13.08-.24.11-.34l.37-1.24-3.59-1.03-.39,1.32-.14.44h0c-.09.29-.19.57-.29.87-.04.1-.07.2-.11.3-.05.12-.09.24-.14.37-.03.07-.05.14-.08.21l-.11.29-.11.28c-.03.07-.06.14-.08.21-.05.12-.1.24-.15.36l-.49,1.13,4.59,2.05c-.64,1.37-1.35,2.7-2.11,3.96l-1.1-.69c.34-.57.69-1.18,1.05-1.85l.29-.54-3.29-1.76-.29.54c-.43.81-.84,1.51-1.25,2.15l-.16.26-.51.78c-.05.08-.11.15-.16.23-.18.26-.36.53-.55.78l-.37.49,4.07,2.97c-.11.14-.22.29-.33.43l-.16.21-.44.55s-.05.06-.08.1c-.05.06-.09.12-.14.17l-.23.28c-.45.54-.94,1.09-1.48,1.66l-.93-.9c.52-.55.99-1.08,1.42-1.6l.39-.47-2.86-2.41-.39.47c-.48.58-1.02,1.17-1.64,1.82l-.43.44-.44.43h0c-.11.12-.23.23-.35.34l-.42.39-.57.51,3.37,3.74-.11.09-.54.46s-.06.05-.1.08c-.06.05-.11.1-.17.14l-.28.22c-.06.05-.13.1-.19.16-.12.1-.24.19-.36.28h0c-.55.44-1.14.87-1.79,1.32l-.73-1.08c.62-.44,1.19-.85,1.72-1.27l.48-.37-2.3-2.94-.48.38c-.6.47-1.25.94-2.01,1.46-.7.47-1.41.91-2.11,1.31l-.53.3,2.51,4.35s-.06.03-.09.05l-.31.17-.31.16c-.07.04-.14.07-.21.11-.14.08-.28.15-.41.22l-.8.4-.59.28c-.18.08-.35.16-.53.24l-.65.29-.09.04-.49-1.2.69-.3c.18-.08.35-.16.52-.23l.57-.27.71-.35-1.64-3.36-.68.34-.55.26c-.15.07-.28.13-.42.19l-.57.25-.85.35-.28.11c-.07.03-.14.05-.21.08-.13.05-.25.09-.36.14-.08.03-.16.06-.25.09-.3.11-.61.22-.92.31l-.59.18,1.56,4.79c-.17.05-.33.1-.5.15-.11.03-.21.06-.32.09l-.68.19-.34.09-.35.09c-.66.17-1.36.32-2.17.47l-.22-1.28c.78-.15,1.46-.3,2.09-.46l.59-.15-.9-3.63-.59.15c-.69.18-1.46.34-2.42.51l-.62.1c-.12.02-.25.04-.38.06-.08.01-.15.02-.23.03-.29.04-.57.08-.87.11-.12.01-.24.03-.36.04l-.6.07.51,4.99-.45.04-1.06.07-1.06.04h-.57c-.16,0-.32.01-.49.01h-.71s-.07,0-.1-.01l.05-1.3s.05,0,.08,0h.68s1.02,0,1.02,0l.96-.03-.12-3.73-.92.03h-.92s-.62,0-.62,0c-.04,0-.08,0-.11,0-.06,0-.13,0-.19,0h-.31c-.07-.01-.15-.02-.22-.02-.13,0-.26,0-.39-.02l-.62-.04h0c-.19-.01-.38-.03-.58-.05h-.02c-.07,0-.15-.02-.22-.02-.13-.01-.26-.02-.39-.04l-.61-.07-.52,5-.32-.04-.53-.07c-.38-.05-.77-.11-1.14-.18l-.25-.04c-.15-.03-.3-.06-.46-.09-.08-.02-.16-.03-.23-.04l-.35-.07c-.07-.01-.15-.03-.22-.05-.04,0-.08-.02-.12-.03l-.7-.15-.1-.02.31-1.26.74.16s.07.02.11.02c.08.02.15.03.23.05l.33.06c.07.01.15.03.22.04.15.03.3.06.45.08l.6.1.65-3.67-.6-.11c-1.68-.3-3.29-.7-4.81-1.2l-.58-.19-1.56,4.78c-.15-.05-.3-.11-.45-.16-.11-.04-.21-.07-.32-.11l-.66-.25s-.08-.03-.12-.04c-.07-.03-.14-.05-.21-.08l-.34-.14c-.64-.26-1.31-.55-2.04-.89l.57-1.17c.7.33,1.34.61,1.96.86l.56.23,1.4-3.46-.57-.23c-1.48-.6-2.97-1.32-4.42-2.16l-.53-.3-2.52,4.35c-.6-.36-1.23-.76-1.91-1.22-.61-.41-1.21-.85-1.81-1.3l.8-1.02c.57.43,1.15.85,1.73,1.24l.5.34,2.09-3.09-.5-.34c-.68-.46-1.35-.96-2-1.46-.72-.57-1.34-1.09-1.9-1.6l-.45-.41-3.37,3.73c-1.09-1.02-2.13-2.09-3.08-3.2l.99-.83c.42.49.89,1,1.44,1.57l.42.44,2.69-2.59-.42-.44c-.66-.69-1.18-1.27-1.65-1.83l-.2-.23-.19-.24c-.05-.06-.09-.12-.14-.18-.09-.11-.17-.2-.24-.3l-.47-.62-.63-.87-4.07,2.96s0,0,0-.01c-.02-.04-.05-.07-.07-.1l-.4-.59c-.05-.08-.11-.16-.16-.24-.2-.31-.41-.63-.61-.94h0c-.21-.34-.41-.69-.61-1.02l-.12-.2c-.08-.14-.16-.28-.23-.41-.04-.07-.08-.14-.11-.2l-.05-.09,1.15-.61.04.07c.04.07.07.13.11.2.07.13.15.27.22.4l.13.22c.19.32.38.64.58.96l.32.51,3.17-1.98-.33-.52c-.17-.27-.34-.56-.51-.84-.04-.07-.09-.15-.13-.22-.07-.11-.13-.23-.19-.34-.04-.07-.07-.13-.11-.19l-.15-.27-.15-.28c-.35-.65-.71-1.38-1.09-2.23l-.25-.55-4.6,2.04-.31-.75s-.03-.08-.05-.12c-.03-.07-.06-.14-.08-.2l-.13-.33c-.03-.08-.06-.15-.09-.23-.06-.15-.11-.29-.16-.43l-.24-.68c-.03-.1-.07-.2-.11-.32l-.11-.35c-.08-.25-.16-.51-.24-.77l1.25-.36c.22.71.44,1.38.67,2.03l.21.57,3.51-1.27-.46-1.3-.14-.45c-.1-.28-.18-.57-.27-.87-.03-.1-.06-.2-.09-.3-.04-.13-.07-.25-.1-.38-.02-.07-.04-.15-.06-.22l-.08-.29-.22-.9-.26-1.2-4.92,1.04c-.16-.81-.28-1.54-.37-2.23h0c-.05-.35-.09-.71-.13-1.05-.01-.12-.03-.24-.04-.36-.02-.16-.03-.32-.04-.48l-.03-.32,1.3-.09v.08c.01.07.02.15.03.22.01.15.03.31.04.46h0c.01.13.03.25.04.37.04.33.07.66.13,1l.09.59,3.7-.51-.09-.61c-.04-.28-.08-.57-.11-.87-.01-.12-.03-.24-.04-.36-.01-.13-.02-.27-.04-.4,0-.07-.01-.15-.02-.22l-.03-.31-.06-.93-.03-.93-.02-1.54h-5.02c.03-1.53.13-3.01.31-4.44l1.29.18-.09.75c-.02.16-.03.31-.04.46,0,.08-.01.15-.02.23v.14c-.03.18-.05.37-.06.56l-.03.6,3.73.26.03-.62c0-.15.02-.31.04-.47v-.13c.02-.08.02-.15.03-.23.01-.13.02-.26.04-.38l.03-.24c.04-.33.07-.66.12-.99h0c.04-.35.1-.69.15-1.02l.04-.21c.02-.12.04-.25.07-.38.01-.07.03-.15.04-.22l.02-.08c.03-.18.07-.34.1-.51l.14-.6-4.93-1.04.03-.14.17-.69s.02-.08.03-.12c.02-.07.03-.14.05-.21l.09-.34c.02-.08.04-.16.07-.24.04-.15.08-.3.12-.44l.21-.69c.03-.1.06-.2.1-.33l.11-.35c.08-.25.17-.51.26-.76l1.22.45c-.08.24-.17.48-.24.73l-.1.31c-.04.13-.08.24-.11.34l-.37,1.24,3.59,1.03.35-1.19c.02-.08.05-.17.09-.28l.1-.31c.09-.28.18-.56.29-.85.04-.11.08-.21.11-.32l.22-.58s.03-.07.04-.11c.02-.06.05-.12.07-.18l.12-.29c.03-.07.06-.14.09-.21.05-.13.1-.24.15-.36l.49-1.13-4.59-2.05c.63-1.36,1.34-2.67,2.1-3.92l1.1.69c-.34.57-.69,1.18-1.05,1.85l-.29.54,3.29,1.76.29-.54c.43-.8.83-1.49,1.24-2.13l.17-.27c.03-.05.07-.1.1-.16.02-.03.04-.06.06-.09l.34-.52c.07-.09.13-.19.2-.28.17-.25.34-.49.51-.72l.37-.49-4.07-2.96c.12-.16.24-.31.35-.46l.16-.21.44-.55s.05-.07.08-.1c.05-.06.09-.12.14-.17l.23-.28c.45-.54.94-1.09,1.48-1.66l.93.9c-.52.55-.99,1.08-1.42,1.59l-.39.47,2.86,2.41.39-.47c.49-.59,1.03-1.19,1.66-1.84.5-.52,1.07-1.07,1.79-1.72l.45-.41-3.36-3.74.61-.52s.06-.05.1-.08c.06-.05.11-.1.17-.14l.28-.22c.06-.05.13-.1.19-.15.12-.1.24-.19.36-.29h0c.55-.43,1.14-.87,1.79-1.32l.73,1.08c-.62.44-1.19.85-1.72,1.27l-.48.37,2.3,2.94.48-.38c.59-.46,1.24-.94,1.99-1.45.74-.49,1.42-.92,2.09-1.31l.53-.31-2.52-4.35s.08-.05.12-.07l.31-.17.31-.16c.07-.04.14-.07.21-.11.14-.08.28-.15.41-.22l.8-.4.59-.28c.18-.08.35-.16.53-.24l.65-.29.09-.04.49,1.2-.69.3c-.18.08-.35.16-.52.24l-.57.27-.71.35,1.64,3.36.68-.34.53-.25c.15-.07.3-.14.44-.2l.58-.25.57-.24s.07-.03.11-.04c.06-.02.12-.05.17-.07l.29-.11c.07-.03.14-.05.22-.08.13-.05.25-.09.36-.14l.6-.21c.08-.03.17-.06.28-.09l.88-.29-1.55-4.79c.15-.05.3-.09.45-.14.11-.03.21-.06.32-.1l.68-.19.34-.09.35-.09c.66-.17,1.36-.32,2.17-.47l.22,1.28c-.78.15-1.46.3-2.09.46l-.59.15.9,3.63.59-.15c.69-.18,1.43-.33,2.4-.51l.62-.1c.1-.02.2-.03.29-.04l.31-.04h0c.3-.05.6-.08.92-.12.1-.01.2-.02.3-.03l.6-.07-.52-4.99s.1,0,.14-.01l.35-.03,1.06-.07,1.06-.04h1.06s.71,0,.71,0c.03,0,.07,0,.1,0l-.05,1.3s-.05,0-.08,0h-.68s-1.02,0-1.02,0l-.96.03.12,3.73.92-.03h.93s.62,0,.62,0c.04,0,.08,0,.12,0,.06,0,.12,0,.18,0h.32c.71.03,1.48.09,2.48.18l.6.06.52-5,.27.03.53.07c.38.05.77.11,1.14.18l.25.04c.15.03.3.05.46.09.08.02.16.03.24.05l.35.07c.07.01.15.03.22.05.04,0,.08.02.12.03l.7.15.1.02-.31,1.26-.74-.16s-.07-.02-.11-.02c-.08-.02-.15-.03-.23-.05l-.33-.06c-.07-.01-.15-.03-.22-.04-.15-.03-.3-.06-.45-.08l-.6-.1-.65,3.68.6.1c.13.02.25.05.38.07.07.01.15.03.22.04l.31.06c.06.01.12.03.18.04.04,0,.07.02.11.02l.6.13.6.15s.08.02.11.03c.06.01.12.03.18.04l.3.08c.07.02.14.04.22.06.13.04.26.07.38.1.08.02.16.05.24.07.31.09.63.19.93.29l.58.2,1.56-4.79c.16.06.33.11.49.17.11.04.21.08.32.11l.66.25s.08.03.12.05c.07.03.14.05.21.08l.34.14c.64.26,1.31.55,2.04.89l-.57,1.17c-.7-.33-1.34-.61-1.96-.86l-.56-.23-1.4,3.46.57.23c1.5.6,3,1.34,4.45,2.18l.53.3,2.52-4.35c.59.36,1.21.75,1.87,1.19.61.41,1.21.85,1.81,1.3l-.8,1.02c-.57-.43-1.15-.85-1.73-1.24l-.5-.34-2.09,3.09.5.34c.68.47,1.35.96,1.99,1.45.1.08.21.16.31.25.06.05.12.09.17.14l.24.19.23.2c.06.05.11.1.17.14.1.09.2.17.3.25l.92.82,3.36-3.73c1.1,1.03,2.15,2.11,3.11,3.23l-.99.83c-.42-.48-.89-.99-1.44-1.57l-.42-.44-2.69,2.59.42.44c.67.7,1.2,1.29,1.66,1.85.58.69,1.08,1.33,1.53,1.95l.36.5,4.07-2.96s.04.05.05.08l.4.59c.05.08.11.16.16.24.2.31.41.63.61.94h0c.21.34.41.69.61,1.02l.12.2c.08.14.16.28.23.41.04.07.08.14.11.2l.05.09-1.15.61-.04-.07c-.04-.07-.07-.13-.11-.2-.07-.13-.15-.27-.22-.4l-.13-.22c-.19-.32-.38-.64-.58-.96l-.32-.51-3.17,1.98.33.52c.17.27.34.56.51.84l.12.21c.07.11.13.23.19.34.04.07.07.13.11.2l.15.27.15.28c.34.64.69,1.34,1.08,2.21l.25.55,4.59-2.05.06.13.27.66s.03.08.05.12c.03.07.06.14.08.21l.13.33c.03.08.06.15.09.23.06.15.11.29.16.43l.24.68c.04.1.07.21.11.32l.11.35c.08.25.16.51.24.77l-1.25.36c-.07-.24-.15-.49-.23-.73l-.1-.31c-.04-.12-.08-.24-.11-.34l-.43-1.22-3.51,1.27.41,1.17c.03.08.06.17.09.28l.1.3h0c.09.29.18.57.27.87.03.11.06.21.1.32l.24.9.07.3c.02.07.04.15.05.22.03.13.06.26.09.38l.26,1.21,4.92-1.03c.15.79.27,1.51.36,2.19h0c.05.35.09.7.13,1.05.01.12.03.24.04.37.02.16.03.32.04.48l.03.32-1.3.09v-.08c-.01-.08-.02-.15-.03-.23-.01-.15-.03-.3-.04-.45h0c-.01-.13-.03-.25-.04-.37-.04-.33-.07-.66-.13-1l-.09-.59-3.7.51.09.61c.04.28.08.57.11.87.01.12.03.23.04.35.01.13.02.26.04.39,0,.08.01.15.02.22l.03.31c0,.06,0,.13.01.19,0,.04,0,.08,0,.11l.04.62.04.92.02,1.53h5.02c-.03,1.54-.13,3.04-.31,4.47Z"/>
    <path class="st3" d="M81.52,47.26h0v-.61h0c-.04-2.2-.29-4.39-.74-6.52-.45-2.14-1.11-4.24-1.97-6.25h0s-.25-.56-.25-.56c0,0,0,0,0,0l-.25-.56h0c-.92-1.96-2.04-3.86-3.33-5.64-.7-.96-1.46-1.9-2.25-2.78-.08-.09-.15-.17-.23-.25l-.38-.41h0c-.13-.14-.26-.27-.39-.41-.08-.08-.15-.16-.23-.23h-.01c-.08-.09-.16-.17-.24-.25-.13-.13-.26-.26-.4-.39l-.21-.2h0s-.3-.28-.3-.28c-.05-.04-.1-.09-.15-.13h0s0,0,0,0c0,0,0,0,0,0h0c-1.78-1.6-3.72-3.01-5.78-4.21-1.88-1.09-3.88-2-5.96-2.72h0s-.58-.19-.58-.19c0,0,0,0,0,0l-.58-.19h0c-2.09-.63-4.25-1.07-6.42-1.3-2.18-.23-4.38-.25-6.56-.06h0s-.6.06-.6.06c0,0,0,0-.01,0l-.61.06h0c-4.33.54-8.6,1.92-12.41,4.04h0s-.53.3-.53.3c0,0,0,0,0,0h0l-.53.31h0c-1.87,1.13-3.64,2.44-5.26,3.91-.09.08-.17.16-.25.23l-.41.38c-.13.13-.27.26-.4.39-.08.08-.16.15-.24.23h-.01c-.08.09-.16.17-.23.25-.13.13-.26.26-.38.4l-.38.41c-.08.08-.16.17-.24.26-.66.73-1.29,1.5-1.89,2.29h0s-.36.49-.36.49c0,0,0,0,0,0l-.36.49h0c-1.27,1.81-2.35,3.73-3.23,5.71-.89,2-1.59,4.09-2.08,6.21h0s-.12.59-.12.59c0,0,0,0,0,.01l-.13.6h0c-.83,4.29-.83,8.77,0,13.06h0s.13.6.13.6c0,0,0,0,0,0,0,0,0,0,0,0l.13.6h0c.49,2.13,1.19,4.22,2.08,6.21.88,1.98,1.97,3.9,3.23,5.7h0s.36.5.36.5c0,0,0,0,0,0l.36.49h0c.6.79,1.23,1.56,1.89,2.29.08.09.16.17.23.25l.38.41h0c.13.14.26.27.39.4.08.08.15.16.23.24h.01c.08.09.16.17.24.25.13.13.26.26.4.39l.41.38c.08.08.17.15.26.23,1.63,1.46,3.39,2.77,5.26,3.9h0s.52.31.52.31c0,0,0,0,0,0l.53.31h0c3.81,2.11,8.08,3.49,12.41,4.02h0s.59.07.59.07c0,0,.01,0,.02,0l.61.06h0c.99.08,1.98.12,2.98.12,1.2,0,2.4-.06,3.59-.19,2.18-.23,4.33-.66,6.42-1.3h0s.58-.18.58-.18c0,0,0,0,0,0l.58-.19h0c2.08-.72,4.08-1.64,5.96-2.73,2.06-1.2,4.01-2.62,5.79-4.22l.02-.02s.08-.07.12-.11l.31-.28h0s.21-.2.21-.2h0c.13-.13.27-.26.4-.39.08-.08.16-.15.24-.23h.01c.08-.09.16-.17.23-.25.13-.13.26-.26.38-.4l.38-.41c.08-.08.16-.17.23-.26.8-.89,1.55-1.82,2.25-2.78,1.3-1.78,2.42-3.68,3.33-5.65h0s.25-.55.25-.55c0,0,0,0,0,0,0,0,0,0,0,0l.25-.56h0c.85-2.02,1.52-4.12,1.97-6.25.45-2.13.7-4.32.74-6.52h0v-.61ZM77.46,60.7h0c-.93,2.09-2.09,4.1-3.46,5.98-.68.93-1.41,1.83-2.18,2.69h0c-.06.08-.13.16-.21.24l-.37.4c-.12.13-.25.25-.37.38-.08.08-.15.16-.23.24-.08.08-.16.15-.24.23-.13.12-.26.25-.38.37l-.4.37s-.06.06-.09.08l-.14.13-.46.4h0c-1.59,1.39-3.32,2.62-5.14,3.68-1.98,1.15-4.1,2.09-6.31,2.81h0c-2.19.71-4.46,1.19-6.75,1.43-2.3.24-4.62.24-6.92,0h-.01c-4.57-.48-9.08-1.94-13.05-4.24h0c-1.99-1.16-3.87-2.52-5.58-4.07h0c-.07-.07-.15-.14-.23-.21l-.4-.38c-.13-.12-.26-.25-.38-.37-.08-.08-.16-.15-.24-.23-.08-.08-.15-.16-.23-.23-.13-.13-.25-.26-.37-.39l-.38-.4c-.07-.08-.14-.15-.2-.22h0c-.77-.86-1.5-1.77-2.18-2.69h0c-1.37-1.88-2.53-3.9-3.46-5.98-.94-2.11-1.66-4.32-2.13-6.57h0c-.95-4.5-.95-9.25,0-13.75.48-2.25,1.19-4.46,2.13-6.57.93-2.08,2.09-4.1,3.46-5.98h0c.68-.93,1.41-1.84,2.18-2.69h0c.06-.08.13-.16.21-.24l.37-.4c.12-.13.25-.26.37-.38.08-.08.15-.16.23-.24.08-.08.16-.15.24-.23.13-.12.25-.25.38-.37l.41-.38c.08-.07.15-.14.22-.2h0c1.72-1.55,3.6-2.92,5.59-4.08h0c3.97-2.3,8.48-3.77,13.05-4.24h0c2.3-.24,4.62-.24,6.92,0,2.29.24,4.57.72,6.76,1.43h0c2.2.72,4.32,1.66,6.3,2.81,1.82,1.05,3.55,2.29,5.14,3.67h0s.46.4.46.4l.14.13s.06.06.09.09l.4.37c.13.12.26.25.38.37.08.08.16.15.24.23.08.08.15.15.23.23.13.13.25.26.38.39l.3.32s.05.06.08.09c.07.08.14.15.2.22h0c.77.86,1.5,1.77,2.18,2.7,1.37,1.88,2.53,3.89,3.46,5.98h0c.94,2.11,1.65,4.32,2.13,6.57.48,2.25.72,4.56.72,6.87,0,2.32-.24,4.63-.72,6.87-.48,2.25-1.19,4.46-2.13,6.57Z"/>
  </g>
  <path class="st2" d="M47.26,18.76c-15.71,0-28.5,12.78-28.5,28.5s12.78,28.5,28.5,28.5,28.5-12.78,28.5-28.5-12.78-28.5-28.5-28.5ZM47.26,73.71c-14.58,0-26.45-11.87-26.45-26.45s11.87-26.45,26.45-26.45,26.45,11.87,26.45,26.45-11.87,26.45-26.45,26.45Z"/>
  <g>
    <polygon class="st0" points="45.24 45.03 50.94 45.03 50.94 53.27 47.56 53.27 47.56 55.49 56.54 55.49 56.54 53.27 53.17 53.27 53.17 43.74 53.17 35.22 56.54 35.22 56.54 32.99 47.56 32.99 47.56 35.22 50.94 35.22 50.94 42.8 45.26 42.8 45.24 45.03"/>
    <polygon class="st0" points="39.67 42.8 33.97 42.8 33.97 41.95 33.97 35.22 37.35 35.22 37.35 32.99 28.37 32.99 28.37 35.22 31.75 35.22 31.75 41.95 31.75 53.29 28.37 53.29 28.37 55.52 37.35 55.52 37.35 53.29 33.97 53.29 33.97 45.03 39.67 45.03 39.67 42.8"/>
    <g>
      <polygon class="st1" points="62.77 49.77 62.77 40.34 66.15 40.34 66.15 38.11 57.17 38.11 57.17 40.34 60.55 40.34 60.55 47.94 54.81 47.94 54.81 50.17 60.55 50.17 60.55 58.65 60.55 59.3 57.17 59.3 57.17 61.53 66.15 61.53 66.15 59.3 62.77 59.3 62.77 58.65 62.77 49.77"/>
      <polygon class="st1" points="49.23 50.17 49.23 47.94 43.58 47.94 43.58 42.29 43.58 40.36 46.96 40.36 46.96 38.13 37.98 38.13 37.98 40.36 41.36 40.36 41.36 42.29 41.36 49.89 41.36 59.3 37.98 59.3 37.98 61.53 46.96 61.53 46.96 59.3 43.58 59.3 43.58 50.17 49.23 50.17"/>
    </g>
  </g>
</svg>