<?xml version="1.0" encoding="UTF-8"?>
<svg id="_x3C_Layer_x3E_" xmlns="http://www.w3.org/2000/svg" version="1.1" viewBox="0 0 56.99 56.99">
  <!-- Generator: Adobe Illustrator 30.0.0, SVG Export Plug-In . SVG Version: 2.1.1 Build 123)  -->
  <path d="M28.5,0C12.78,0,0,12.78,0,28.5s12.78,28.5,28.5,28.5,28.5-12.78,28.5-28.5S44.21,0,28.5,0ZM28.5,54.95c-14.58,0-26.45-11.87-26.45-26.45S13.91,2.05,28.5,2.05s26.45,11.87,26.45,26.45-11.87,26.45-26.45,26.45Z"/>
  <g>
    <polygon points="26.48 26.26 32.18 26.26 32.18 34.5 28.8 34.5 28.8 36.73 37.78 36.73 37.78 34.5 34.4 34.5 34.4 24.97 34.4 16.45 37.78 16.45 37.78 14.23 28.8 14.23 28.8 16.45 32.18 16.45 32.18 24.04 26.49 24.04 26.48 26.26"/>
    <polygon points="20.91 24.04 15.21 24.04 15.21 23.19 15.21 16.45 18.59 16.45 18.59 14.23 9.61 14.23 9.61 16.45 12.98 16.45 12.98 23.19 12.98 34.53 9.61 34.53 9.61 36.76 18.59 36.76 18.59 34.53 15.21 34.53 15.21 26.26 20.91 26.26 20.91 24.04"/>
    <g>
      <polygon points="44.01 31 44.01 21.58 47.39 21.58 47.39 19.35 38.41 19.35 38.41 21.58 41.78 21.58 41.78 29.18 36.05 29.18 36.05 31.4 41.78 31.4 41.78 39.89 41.78 40.54 38.41 40.54 38.41 42.76 47.39 42.76 47.39 40.54 44.01 40.54 44.01 39.89 44.01 31"/>
      <polygon points="30.47 31.4 30.47 29.18 24.82 29.18 24.82 23.52 24.82 21.59 28.2 21.59 28.2 19.37 19.22 19.37 19.22 21.59 22.59 21.59 22.59 23.52 22.59 31.13 22.59 40.54 19.22 40.54 19.22 42.77 28.2 42.77 28.2 40.54 24.82 40.54 24.82 31.4 30.47 31.4"/>
    </g>
  </g>
</svg>