<?xml version="1.0" encoding="UTF-8" standalone="no"?>
<!DOCTYPE svg PUBLIC "-//W3C//DTD SVG 1.1//EN" "http://www.w3.org/Graphics/SVG/1.1/DTD/svg11.dtd">
<svg xmlns="http://www.w3.org/2000/svg" version="1.1" viewBox="0.00 0.00 1080.00 360.00">
<path fill="#ffffff" d="
  M 811.83 120.72
  C 829.71 120.72 846.47 122.70 862.47 130.54
  C 882.47 140.35 892.77 158.04 892.77 179.87
  C 892.77 201.69 882.46 219.38 862.46 229.19
  C 846.47 237.03 829.70 239.01 811.82 239.01
  C 793.94 239.01 777.17 237.03 761.18 229.19
  C 741.18 219.38 730.88 201.69 730.88 179.86
  C 730.88 158.04 741.18 140.35 761.18 130.54
  C 777.18 122.70 793.95 120.72 811.83 120.72
  Z
  M 748.87 179.85
  C 748.88 209.78 777.51 220.97 802.51 222.28
  Q 808.17 222.58 811.75 222.58
  Q 815.34 222.58 821.00 222.28
  C 845.99 220.96 874.62 209.76 874.62 179.84
  C 874.61 149.91 845.98 138.72 820.99 137.41
  Q 815.32 137.11 811.74 137.11
  Q 808.16 137.11 802.50 137.41
  C 777.50 138.73 748.87 149.93 748.87 179.85
  Z"
/>
<path fill="#ffffff" d="
  M 947.92 197.17
  A 0.45 0.44 90.0 0 1 948.36 197.62
  L 948.36 214.92
  A 0.67 0.65 8.3 0 0 948.84 215.55
  Q 978.11 223.72 1010.21 222.42
  C 1020.78 221.99 1051.45 219.23 1050.57 203.09
  C 1050.20 196.36 1043.04 193.60 1037.21 192.33
  Q 1029.06 190.56 1019.99 190.01
  Q 1003.26 188.99 986.68 188.07
  Q 980.02 187.70 974.35 186.79
  C 966.85 185.59 958.13 184.34 949.99 180.53
  Q 928.72 170.56 934.42 146.87
  Q 936.01 140.29 943.06 134.06
  Q 949.55 128.33 960.41 125.15
  C 974.20 121.12 986.61 120.61 1001.34 120.77
  Q 1029.62 121.08 1059.22 127.34
  A 0.80 0.80 0.0 0 1 1059.85 128.12
  L 1059.85 157.64
  A 0.42 0.42 0.0 0 1 1059.43 158.06
  L 1044.10 158.06
  A 0.67 0.67 0.0 0 1 1043.43 157.39
  L 1043.43 141.92
  A 0.68 0.68 0.0 0 0 1042.87 141.25
  Q 1016.58 136.68 990.00 137.21
  C 979.48 137.42 967.41 138.89 957.94 144.15
  C 951.45 147.75 948.13 156.34 954.07 162.21
  Q 958.25 166.34 965.63 168.13
  Q 975.42 170.50 985.44 171.12
  Q 987.77 171.26 1014.99 172.55
  Q 1030.44 173.28 1044.28 176.70
  Q 1048.43 177.72 1053.93 180.33
  Q 1069.68 187.79 1068.54 205.50
  C 1067.08 228.02 1039.98 235.80 1021.35 237.85
  Q 975.86 242.87 932.43 227.94
  A 0.81 0.79 9.9 0 1 931.89 227.19
  L 931.89 197.65
  A 0.49 0.48 -0.0 0 1 932.38 197.17
  L 947.92 197.17
  Z"
/>
<path fill="#ffffff" d="
  M 100.86 170.06
  Q 145.96 170.06 149.30 170.03
  A 0.39 0.39 0.0 0 0 149.68 169.64
  L 149.68 139.92
  A 0.38 0.37 -90.0 0 0 149.31 139.54
  L 124.89 139.54
  A 0.53 0.53 0.0 0 1 124.36 139.01
  L 124.36 123.61
  A 0.59 0.59 0.0 0 1 124.95 123.02
  L 189.57 123.02
  A 0.63 0.62 -90.0 0 1 190.19 123.65
  L 190.19 139.07
  A 0.47 0.47 0.0 0 1 189.72 139.54
  L 168.00 139.54
  A 0.56 0.56 0.0 0 0 167.44 140.10
  L 167.44 219.68
  A 0.48 0.48 0.0 0 0 167.92 220.16
  L 189.84 220.16
  A 0.35 0.35 0.0 0 1 190.19 220.51
  L 190.19 236.06
  A 0.74 0.74 0.0 0 1 189.45 236.80
  L 124.86 236.80
  A 0.50 0.49 0.0 0 1 124.36 236.31
  L 124.36 220.74
  A 0.58 0.58 0.0 0 1 124.94 220.16
  L 149.16 220.16
  A 0.52 0.51 -0.0 0 0 149.68 219.65
  L 149.68 186.77
  A 0.40 0.39 1.6 0 0 149.30 186.38
  Q 148.98 186.36 100.86 186.37
  Q 52.75 186.37 52.42 186.38
  A 0.40 0.39 -1.6 0 0 52.04 186.77
  L 52.05 219.65
  A 0.52 0.51 -0.0 0 0 52.57 220.16
  L 76.79 220.16
  A 0.58 0.58 0.0 0 1 77.37 220.74
  L 77.37 236.31
  A 0.50 0.49 -0.0 0 1 76.87 236.80
  L 12.28 236.80
  A 0.74 0.74 0.0 0 1 11.54 236.06
  L 11.54 220.51
  A 0.35 0.35 0.0 0 1 11.89 220.16
  L 33.81 220.16
  A 0.48 0.48 0.0 0 0 34.29 219.68
  L 34.28 140.10
  A 0.56 0.56 0.0 0 0 33.72 139.54
  L 12.00 139.54
  A 0.47 0.47 0.0 0 1 11.53 139.07
  L 11.53 123.65
  A 0.63 0.62 90.0 0 1 12.15 123.02
  L 76.77 123.02
  A 0.59 0.59 0.0 0 1 77.36 123.61
  L 77.36 139.01
  A 0.53 0.53 0.0 0 1 76.83 139.54
  L 52.41 139.54
  A 0.38 0.37 90.0 0 0 52.04 139.92
  L 52.04 169.64
  A 0.39 0.39 0.0 0 0 52.42 170.03
  Q 55.76 170.06 100.86 170.06
  Z"
/>
<path fill="#ffffff" d="
  M 357.07 186.36
  L 268.86 186.36
  A 0.51 0.51 0.0 0 0 268.35 186.87
  L 268.35 219.66
  A 0.51 0.51 0.0 0 0 268.86 220.17
  L 364.07 220.17
  A 0.51 0.51 0.0 0 0 364.58 219.66
  L 364.58 202.44
  A 0.51 0.51 0.0 0 1 365.09 201.93
  L 380.55 201.93
  A 0.51 0.51 0.0 0 1 381.06 202.44
  L 381.06 236.29
  A 0.51 0.51 0.0 0 1 380.55 236.80
  L 229.69 236.80
  A 0.51 0.51 0.0 0 1 229.18 236.29
  L 229.18 220.67
  A 0.51 0.51 0.0 0 1 229.69 220.16
  L 250.09 220.16
  A 0.51 0.51 0.0 0 0 250.60 219.65
  L 250.60 140.05
  A 0.51 0.51 0.0 0 0 250.09 139.54
  L 229.70 139.54
  A 0.51 0.51 0.0 0 1 229.19 139.03
  L 229.19 123.51
  A 0.51 0.51 0.0 0 1 229.70 123.00
  L 377.20 123.00
  A 0.51 0.51 0.0 0 1 377.71 123.51
  L 377.71 157.05
  A 0.51 0.51 0.0 0 1 377.20 157.56
  L 361.88 157.56
  A 0.51 0.51 0.0 0 1 361.37 157.05
  L 361.37 140.07
  A 0.51 0.51 0.0 0 0 360.86 139.56
  L 268.87 139.56
  A 0.51 0.51 0.0 0 0 268.36 140.07
  L 268.36 169.55
  A 0.51 0.51 0.0 0 0 268.87 170.06
  L 357.07 170.06
  A 0.51 0.51 0.0 0 1 357.58 170.57
  L 357.58 185.85
  A 0.51 0.51 0.0 0 1 357.07 186.36
  Z"
/>
<path fill="#ffffff" d="
  M 559.83 236.80
  L 420.82 236.80
  A 0.62 0.62 0.0 0 1 420.20 236.18
  L 420.20 220.79
  A 0.62 0.62 0.0 0 1 420.82 220.17
  L 441.08 220.17
  A 0.62 0.62 0.0 0 0 441.70 219.55
  L 441.70 140.15
  A 0.62 0.62 0.0 0 0 441.08 139.53
  L 420.83 139.53
  A 0.62 0.62 0.0 0 1 420.21 138.91
  L 420.21 123.61
  A 0.62 0.62 0.0 0 1 420.83 122.99
  L 480.07 122.99
  A 0.62 0.62 0.0 0 1 480.69 123.61
  L 480.69 138.92
  A 0.62 0.62 0.0 0 1 480.07 139.54
  L 459.97 139.54
  A 0.62 0.62 0.0 0 0 459.35 140.16
  L 459.35 219.55
  A 0.62 0.62 0.0 0 0 459.97 220.17
  L 543.33 220.17
  A 0.62 0.62 0.0 0 0 543.95 219.55
  L 543.95 202.58
  A 0.62 0.62 0.0 0 1 544.57 201.96
  L 559.83 201.96
  A 0.62 0.62 0.0 0 1 560.45 202.58
  L 560.45 236.18
  A 0.62 0.62 0.0 0 1 559.83 236.80
  Z"
/>
<path fill="#ffffff" d="
  M 645.62 123.00
  Q 689.51 122.99 691.27 123.04
  A 0.54 0.53 0.8 0 1 691.79 123.57
  L 691.79 138.99
  A 0.57 0.56 -90.0 0 1 691.23 139.56
  L 654.89 139.57
  A 0.44 0.44 0.0 0 0 654.45 140.02
  Q 654.45 140.43 654.45 179.88
  Q 654.45 219.33 654.46 219.75
  A 0.44 0.44 0.0 0 0 654.90 220.19
  L 691.24 220.20
  A 0.57 0.56 90.0 0 1 691.80 220.77
  L 691.80 236.19
  A 0.54 0.53 -0.8 0 1 691.28 236.72
  Q 689.52 236.77 645.62 236.77
  Q 601.73 236.77 599.97 236.72
  A 0.54 0.53 0.8 0 1 599.45 236.19
  L 599.45 220.77
  A 0.57 0.56 -90.0 0 1 600.01 220.20
  L 636.35 220.19
  A 0.44 0.44 0.0 0 0 636.79 219.75
  Q 636.79 219.33 636.79 179.88
  Q 636.79 140.43 636.79 140.02
  A 0.44 0.44 0.0 0 0 636.35 139.58
  L 600.01 139.57
  A 0.57 0.56 90.0 0 1 599.45 139.00
  L 599.44 123.58
  A 0.54 0.53 -0.8 0 1 599.97 123.04
  Q 601.73 123.00 645.62 123.00
  Z"
/>
</svg>
