<?xml version="1.0" encoding="UTF-8" standalone="no"?>
<!DOCTYPE svg PUBLIC "-//W3C//DTD SVG 1.1//EN" "http://www.w3.org/Graphics/SVG/1.1/DTD/svg11.dtd">
<svg xmlns="http://www.w3.org/2000/svg" version="1.1" viewBox="0.00 0.00 1080.00 360.00">
<g stroke-width="2.00" fill="none" stroke-linecap="butt">
<path stroke="#808080" vector-effect="non-scaling-stroke" d="
  M 340.13 228.64
  L 423.16 273.31
  A 0.84 0.84 0.0 0 0 424.30 272.96
  L 441.61 240.80
  A 1.03 1.03 0.0 0 0 440.95 239.31
  C 438.24 238.63 436.68 237.22 434.65 236.15
  Q 414.96 225.74 399.24 217.09
  A 0.91 0.91 0.0 0 1 398.97 215.72
  Q 415.61 195.01 424.51 184.26
  Q 425.41 183.17 426.77 180.85
  A 1.20 1.18 -49.9 0 0 426.66 179.48
  L 398.41 145.12
  A 0.18 0.17 56.2 0 1 398.46 144.85
  L 441.04 122.05
  A 1.02 1.02 0.0 0 0 441.46 120.67
  L 424.49 89.00
  A 1.24 1.23 -26.7 0 0 422.87 88.47
  C 415.20 92.20 405.35 97.91 398.01 101.74
  Q 389.33 106.27 388.34 106.90
  C 382.89 110.39 377.35 112.15 371.78 115.80
  Q 368.08 118.22 361.24 121.46
  Q 351.74 125.95 339.85 133.45
  A 0.30 0.30 0.0 0 0 339.77 133.89
  L 377.53 179.79
  A 1.29 1.29 0.0 0 1 377.54 181.42
  L 339.97 227.84
  A 0.53 0.53 0.0 0 0 340.13 228.64"
/>
<path stroke="#808080" vector-effect="non-scaling-stroke" d="
  M 872.21 120.89
  L 855.26 89.24
  A 1.49 1.49 0.0 0 0 853.25 88.63
  L 771.15 132.60
  A 1.39 1.38 -36.5 0 0 770.82 134.80
  Q 774.24 138.23 775.17 139.56
  Q 777.39 142.69 779.22 144.59
  C 782.52 148.00 785.69 152.80 788.76 156.19
  Q 792.79 160.63 796.27 165.77
  A 7.04 6.84 4.1 0 0 797.50 167.15
  C 800.84 169.97 803.65 174.55 806.82 178.08
  Q 808.74 180.21 831.49 208.02
  Q 832.79 209.61 834.14 211.50
  A 0.91 0.91 0.0 0 1 833.88 212.79
  L 790.54 239.88
  A 1.28 1.28 0.0 0 0 790.12 241.61
  Q 797.52 254.22 804.00 263.98
  C 805.62 266.42 806.47 268.69 807.97 270.99
  Q 809.48 273.30 811.48 271.97
  Q 821.28 265.43 831.26 259.65
  C 833.90 258.12 836.46 256.06 839.63 254.42
  C 841.99 253.20 844.20 251.19 846.41 249.93
  Q 855.83 244.52 860.56 241.19
  C 866.39 237.09 873.06 234.12 879.23 229.55
  C 883.19 226.62 887.73 224.49 891.11 222.56
  A 1.17 1.16 -34.6 0 0 891.44 220.81
  L 829.61 145.64
  A 0.85 0.85 0.0 0 1 829.87 144.34
  L 871.93 121.81
  A 0.68 0.68 0.0 0 0 872.21 120.89"
/>
<path stroke="#808080" vector-effect="non-scaling-stroke" d="
  M 630.97 182.18
  A 1.19 1.19 0.0 0 0 630.96 183.71
  L 707.47 276.71
  A 1.19 1.19 0.0 0 0 709.31 276.71
  L 785.84 183.82
  A 1.19 1.19 0.0 0 0 785.83 182.30
  L 709.52 91.43
  A 1.19 1.19 0.0 0 0 707.70 91.43
  L 630.97 182.18"
/>
<path stroke="#808080" vector-effect="non-scaling-stroke" d="
  M 614.63 271.33
  A 1.45 1.45 0.0 0 0 616.08 269.88
  L 616.08 108.75
  A 1.45 1.45 0.0 0 0 615.04 107.35
  L 579.59 96.96
  A 1.45 1.45 0.0 0 0 577.73 98.35
  L 577.73 269.88
  A 1.45 1.45 0.0 0 0 579.18 271.33
  L 614.63 271.33"
/>
<path stroke="#808080" vector-effect="non-scaling-stroke" d="
  M 237.86 191.79
  L 284.87 191.79
  A 0.56 0.56 0.0 0 1 285.43 192.35
  L 285.43 268.68
  A 1.63 1.62 90.0 0 0 287.05 270.31
  L 327.18 270.31
  A 0.49 0.49 0.0 0 0 327.67 269.82
  L 327.87 251.89
  Q 327.87 251.84 327.87 251.80
  Q 327.42 248.00 327.50 246.03
  Q 327.93 234.55 327.83 224.50
  Q 327.58 199.92 327.68 169.67
  C 327.69 166.39 328.29 163.94 327.88 161.01
  Q 327.71 159.78 327.70 154.50
  Q 327.68 147.43 327.79 130.11
  C 327.81 126.65 327.34 123.98 327.84 121.31
  A 0.35 0.31 -41.4 0 0 327.85 121.23
  L 327.62 102.81
  A 1.03 1.03 0.0 0 0 326.59 101.79
  L 289.52 101.79
  A 1.12 1.12 0.0 0 0 288.40 102.91
  L 288.40 156.90
  A 0.37 0.36 -90.0 0 1 288.04 157.27
  L 239.98 157.27
  A 1.08 1.08 0.0 0 1 238.90 156.19
  L 238.90 103.32
  A 1.73 1.71 3.6 0 0 237.39 101.62
  C 234.68 101.28 232.52 102.08 229.92 101.90
  Q 226.71 101.68 225.06 101.70
  Q 207.27 101.94 202.49 101.93
  Q 201.53 101.93 199.38 101.57
  A 0.57 0.57 0.0 0 0 198.72 102.08
  C 197.98 109.12 198.59 118.21 198.53 124.62
  Q 198.34 141.81 198.53 157.61
  C 198.57 160.70 198.25 164.41 198.45 168.26
  C 198.74 173.78 198.19 180.93 198.39 186.26
  C 198.80 197.68 198.35 210.11 198.54 219.74
  Q 198.71 229.13 198.49 243.24
  Q 198.34 252.90 198.72 269.13
  A 1.16 1.16 0.0 0 0 199.88 270.26
  L 236.59 270.26
  A 0.85 0.84 -4.6 0 0 237.43 269.28
  L 237.06 266.92
  A 5.51 5.44 -44.7 0 1 237.08 265.12
  C 237.67 261.89 237.17 257.46 237.27 253.03
  Q 237.40 247.75 237.17 192.48
  A 0.69 0.69 0.0 0 1 237.86 191.79"
/>
<path stroke="#808080" vector-effect="non-scaling-stroke" d="
  M 456.01 102.68
  L 456.01 269.97
  A 0.89 0.89 0.0 0 0 456.87 270.86
  Q 467.95 271.24 474.41 271.06
  C 477.93 270.96 480.81 271.45 483.76 271.13
  Q 487.25 270.75 490.77 271.02
  Q 493.85 271.26 504.44 270.99
  Q 510.08 270.85 518.06 271.18
  Q 522.71 271.37 532.72 270.58
  A 1.86 1.84 18.3 0 0 533.95 269.97
  L 564.56 235.79
  A 0.84 0.84 0.0 0 0 564.14 234.41
  C 559.55 233.28 553.89 234.40 549.10 234.30
  Q 534.17 233.98 504.28 234.08
  Q 497.55 234.11 494.31 233.64
  A 0.63 0.63 0.0 0 1 493.77 233.02
  Q 493.59 167.62 493.73 126.85
  C 493.74 124.46 493.42 121.72 493.58 119.51
  Q 494.02 113.49 493.59 108.75
  C 493.39 106.50 495.22 101.52 491.25 101.65
  Q 482.98 101.93 459.44 101.67
  Q 457.86 101.65 456.43 102.11
  A 0.60 0.60 0.0 0 0 456.01 102.68"
/>
<path stroke="#808080" vector-effect="non-scaling-stroke" d="
  M 420.61 114.90
  Q 418.33 113.31 417.60 109.91
  A 0.88 0.88 0.0 0 0 416.32 109.32
  Q 387.12 125.01 368.59 134.81
  Q 364.40 137.02 366.86 140.70
  C 371.43 147.57 382.24 159.53 389.15 168.78
  Q 393.70 174.86 397.56 179.32
  A 1.06 1.05 43.3 0 1 397.60 180.65
  Q 381.61 201.54 368.37 218.37
  C 364.41 223.40 367.20 225.73 371.49 228.05
  Q 394.78 240.67 411.26 249.38
  C 412.79 250.19 413.86 251.06 415.18 251.79
  A 0.68 0.67 -61.0 0 0 416.10 251.52
  L 418.39 247.25
  A 1.43 1.43 0.0 0 1 419.21 246.56
  Q 419.84 246.35 419.73 246.02
  Q 419.49 245.31 418.84 244.97
  Q 397.11 233.35 376.14 221.90
  A 0.53 0.53 0.0 0 1 375.97 221.11
  Q 389.21 203.94 405.18 183.19
  Q 406.81 181.08 406.26 178.37
  A 1.31 1.27 20.9 0 0 406.00 177.81
  L 376.11 140.21
  A 0.59 0.59 0.0 0 1 376.30 139.32
  L 420.57 115.61
  A 0.42 0.42 0.0 0 0 420.61 114.90"
/>
<path stroke="#808080" vector-effect="non-scaling-stroke" d="
  M 850.78 114.67
  L 850.08 114.28
  A 0.80 0.74 88.9 0 1 849.77 113.96
  L 847.42 109.58
  A 0.64 0.64 0.0 0 0 846.54 109.32
  Q 825.22 120.97 801.60 133.33
  Q 799.35 134.51 797.42 136.07
  A 1.96 1.91 79.2 0 0 796.78 137.04
  Q 796.09 139.49 797.97 141.76
  Q 820.46 168.93 856.34 212.70
  A 0.51 0.50 -36.8 0 1 856.23 213.43
  L 808.52 245.80
  A 0.31 0.31 0.0 0 0 808.43 246.23
  L 812.30 251.93
  A 0.36 0.36 0.0 0 0 812.80 252.03
  Q 833.13 238.41 858.80 220.82
  Q 860.04 219.97 863.78 217.59
  C 867.23 215.38 866.70 213.31 864.21 210.29
  Q 816.64 152.43 811.23 145.87
  Q 807.10 140.86 806.54 140.14
  A 0.57 0.56 56.5 0 1 806.71 139.29
  L 850.78 115.70
  A 0.59 0.59 0.0 0 0 850.78 114.67"
/>
<path stroke="#808080" vector-effect="non-scaling-stroke" d="
  M 766.00 186.36
  A 4.01 4.01 0.0 0 0 766.01 181.13
  L 711.57 117.66
  A 4.01 4.01 0.0 0 0 705.46 117.69
  L 651.58 181.41
  A 4.01 4.01 0.0 0 0 651.60 186.61
  L 705.43 249.35
  A 4.01 4.01 0.0 0 0 711.51 249.36
  L 766.00 186.36"
/>
<path stroke="#808080" vector-effect="non-scaling-stroke" d="
  M 600.71 114.99
  A 0.26 0.26 0.0 0 0 600.45 114.73
  L 593.39 114.73
  A 0.26 0.26 0.0 0 0 593.13 114.99
  L 593.13 257.93
  A 0.26 0.26 0.0 0 0 593.39 258.19
  L 600.45 258.19
  A 0.26 0.26 0.0 0 0 600.71 257.93
  L 600.71 114.99"
/>
<path stroke="#808080" vector-effect="non-scaling-stroke" d="
  M 220.92 114.16
  Q 218.28 115.61 214.93 114.37
  A 0.54 0.54 0.0 0 0 214.20 114.88
  L 214.27 258.94
  A 0.66 0.65 -30.8 0 0 215.50 259.25
  Q 215.52 259.21 215.51 258.97
  A 0.97 0.97 0.0 0 1 216.33 257.98
  Q 219.40 257.53 220.97 258.59
  A 0.59 0.58 17.2 0 0 221.89 258.11
  L 221.89 178.41
  A 0.68 0.68 0.0 0 1 222.57 177.73
  L 304.18 177.73
  A 0.44 0.44 0.0 0 1 304.62 178.17
  L 304.62 257.47
  A 0.48 0.48 0.0 0 0 305.10 257.95
  L 310.34 257.95
  A 0.85 0.84 -16.5 0 1 311.05 258.33
  Q 311.34 258.76 311.38 258.77
  A 0.67 0.67 0.0 0 0 312.21 258.12
  L 312.19 115.11
  A 0.32 0.31 -90.0 0 0 311.88 114.79
  L 304.89 114.79
  A 0.27 0.27 0.0 0 0 304.62 115.06
  L 304.62 169.83
  A 0.54 0.54 0.0 0 1 304.08 170.37
  L 222.47 170.37
  A 0.61 0.61 0.0 0 1 221.86 169.76
  L 221.86 114.72
  A 0.64 0.64 0.0 0 0 220.92 114.16"
/>
<path stroke="#808080" vector-effect="non-scaling-stroke" d="
  M 532.34 248.65
  L 479.09 248.65
  A 0.60 0.59 -0.0 0 1 478.49 248.06
  L 478.49 114.86
  A 0.54 0.54 0.0 0 0 477.76 114.35
  Q 474.68 115.47 471.55 114.42
  A 0.52 0.52 0.0 0 0 470.87 114.91
  Q 470.92 179.29 470.92 251.30
  C 470.92 255.22 473.73 256.30 477.35 256.29
  Q 529.78 256.23 532.20 256.21
  A 0.33 0.33 0.0 0 0 532.53 255.88
  L 532.53 248.84
  A 0.19 0.19 0.0 0 0 532.34 248.65"
/>
<path stroke="#808080" vector-effect="non-scaling-stroke" d="
  M 708.08 240.87
  A 0.54 0.54 0.0 0 0 708.90 240.88
  L 758.04 184.08
  A 0.54 0.54 0.0 0 0 758.04 183.38
  L 708.98 126.20
  A 0.54 0.54 0.0 0 0 708.16 126.20
  L 659.59 183.66
  A 0.54 0.54 0.0 0 0 659.59 184.36
  L 708.08 240.87"
/>
<path stroke="#808080" vector-effect="non-scaling-stroke" d="
  M 709.56 147.18
  A 1.36 1.36 0.0 0 0 707.48 147.17
  L 677.71 182.38
  A 1.36 1.36 0.0 0 0 677.70 184.13
  L 707.37 220.19
  A 1.36 1.36 0.0 0 0 709.47 220.20
  L 739.16 184.16
  A 1.36 1.36 0.0 0 0 739.15 182.42
  L 709.56 147.18"
/>
</g>
<path fill="#000000" d="
  M 624.16 175.92
  Q 624.51 175.81 624.88 175.38
  Q 640.17 157.18 648.51 147.52
  Q 648.73 147.26 651.14 144.39
  Q 667.04 125.43 683.16 106.64
  Q 687.23 101.89 689.73 98.75
  Q 694.18 93.17 700.44 87.17
  Q 704.18 83.59 706.55 83.30
  C 712.23 82.62 714.54 84.78 717.98 89.66
  Q 718.79 90.81 722.06 94.21
  Q 723.47 95.67 732.05 106.60
  C 733.28 108.17 734.96 109.55 736.22 111.03
  Q 740.32 115.85 755.83 134.69
  A 1.42 1.42 0.0 0 0 757.97 134.75
  C 761.42 131.03 765.11 126.65 769.45 124.76
  Q 773.61 122.96 778.22 119.93
  A 19.62 19.60 -74.1 0 1 780.70 118.55
  Q 787.85 115.23 789.30 114.30
  C 793.56 111.55 798.88 108.70 802.50 107.02
  Q 804.84 105.93 841.07 86.26
  Q 844.04 84.65 849.08 82.10
  Q 852.73 80.26 854.47 80.49
  C 859.18 81.12 862.04 85.20 864.29 89.47
  Q 866.69 94.02 869.06 98.63
  C 871.29 102.95 873.86 106.76 875.44 110.54
  C 876.60 113.31 877.66 114.74 879.06 117.23
  C 880.73 120.19 879.78 124.52 877.78 126.58
  C 870.39 134.21 866.42 139.09 857.87 142.78
  Q 852.85 144.94 849.04 147.59
  C 847.56 148.63 846.26 149.03 844.67 149.84
  A 1.02 1.02 0.0 0 0 844.35 151.41
  Q 865.94 177.32 884.44 200.31
  C 888.33 205.14 892.08 209.13 896.47 214.35
  Q 901.38 220.20 897.99 226.26
  A 4.64 4.41 82.8 0 1 897.32 227.17
  Q 893.83 230.92 886.37 238.11
  Q 885.12 239.33 880.14 241.91
  C 873.62 245.29 868.11 250.58 861.34 253.61
  C 858.83 254.73 856.87 256.47 854.63 257.88
  Q 832.64 271.75 805.46 288.49
  Q 798.78 292.60 792.94 287.29
  C 790.43 285.01 789.10 281.15 786.97 277.93
  Q 781.55 269.72 773.54 256.25
  Q 772.02 253.68 771.90 252.55
  C 771.59 249.41 773.54 246.03 775.63 243.88
  Q 779.99 239.39 785.83 233.71
  A 7.55 7.41 -82.4 0 1 787.19 232.65
  L 811.08 218.11
  A 0.29 0.28 -41.9 0 0 811.11 217.64
  Q 810.93 217.49 810.59 217.36
  Q 810.38 217.29 810.13 216.98
  Q 802.96 208.28 792.96 195.68
  Q 791.87 194.31 789.66 192.61
  A 0.63 0.62 42.7 0 0 788.85 192.64
  Q 786.87 194.44 785.90 195.66
  Q 774.77 209.75 768.49 216.99
  C 765.37 220.58 763.36 223.86 760.57 226.76
  Q 757.03 230.45 754.08 234.44
  Q 749.98 239.99 747.67 242.35
  C 744.67 245.41 742.13 249.25 739.09 252.87
  Q 725.53 268.96 717.04 279.54
  Q 712.39 285.34 705.53 291.54
  C 701.09 295.55 695.12 296.63 690.95 291.54
  Q 662.04 256.18 624.55 210.85
  A 0.40 0.39 25.1 0 0 623.85 211.10
  Q 623.89 217.48 623.94 233.25
  C 623.95 236.51 623.60 239.27 623.65 242.62
  Q 623.95 261.64 623.44 270.99
  C 623.34 272.91 622.08 274.97 620.55 276.56
  Q 615.32 281.96 610.13 286.92
  A 6.61 6.61 0.0 0 1 606.91 288.60
  C 601.45 289.73 595.51 289.05 590.85 289.25
  Q 583.91 289.54 570.98 289.05
  Q 565.46 288.85 563.36 287.20
  Q 560.26 284.79 559.72 280.26
  C 559.40 277.53 560.16 274.61 559.78 271.92
  Q 559.38 269.08 559.83 265.73
  C 560.43 261.35 559.42 258.08 559.86 253.80
  A 0.47 0.47 0.0 0 0 559.04 253.43
  Q 555.69 257.04 552.54 260.79
  Q 540.93 274.60 529.13 285.62
  C 527.39 287.25 525.84 288.25 523.35 288.45
  Q 514.30 289.17 507.84 289.03
  Q 499.99 288.85 495.66 288.88
  Q 465.27 289.08 449.75 288.95
  C 444.76 288.91 439.44 287.29 438.38 282.17
  Q 437.73 279.00 438.25 271.07
  A 13.33 12.93 -47.9 0 0 438.15 268.27
  Q 437.92 266.75 438.20 265.06
  A 0.36 0.36 0.0 0 0 437.53 264.82
  L 430.98 276.73
  A 1.15 0.96 85.0 0 1 430.84 276.93
  Q 422.08 286.23 418.20 289.42
  C 416.29 290.98 412.96 291.63 410.24 290.70
  Q 409.73 290.53 404.35 287.65
  Q 350.72 258.89 346.77 256.68
  C 343.26 254.73 339.48 253.44 336.69 250.77
  A 0.54 0.54 0.0 0 0 335.78 251.06
  C 334.42 258.45 338.21 269.70 332.78 275.35
  Q 324.89 283.55 320.87 287.10
  C 319.97 287.90 317.73 288.23 316.29 288.22
  Q 295.51 288.04 278.25 288.36
  Q 271.56 288.49 268.82 283.92
  Q 267.42 281.58 267.45 273.33
  Q 267.51 258.46 267.60 235.44
  Q 267.61 232.95 267.53 226.68
  Q 267.43 219.46 267.57 217.94
  C 267.81 215.21 267.40 213.10 267.44 210.22
  A 0.57 0.57 0.0 0 0 266.87 209.64
  L 245.42 209.64
  A 0.54 0.53 86.7 0 0 244.89 210.24
  C 245.39 214.65 244.65 220.76 244.95 224.18
  Q 245.06 225.46 245.04 261.33
  C 245.04 263.17 244.53 265.65 244.84 266.98
  Q 246.06 272.16 242.31 275.57
  Q 240.82 276.93 231.15 286.64
  C 228.85 288.96 224.23 288.42 219.82 288.23
  Q 215.50 288.05 212.70 288.20
  Q 207.69 288.46 205.52 288.18
  C 202.74 287.82 200.36 288.57 197.16 288.05
  A 6.51 5.79 44.3 0 0 195.85 287.99
  Q 192.97 288.18 189.48 288.09
  C 183.66 287.94 180.58 283.25 180.76 277.77
  C 180.91 273.01 180.19 266.49 180.38 263.77
  Q 180.82 257.36 180.66 255.94
  Q 180.17 251.75 180.71 248.10
  Q 180.98 246.24 180.72 236.19
  Q 180.46 226.38 180.52 224.30
  Q 180.58 221.96 180.56 137.59
  C 180.56 129.05 179.98 119.22 180.80 111.27
  C 180.95 109.81 182.23 107.83 183.33 106.70
  Q 192.87 97.02 194.41 95.69
  Q 196.82 93.61 201.06 94.04
  Q 206.72 94.62 214.62 94.20
  C 220.14 93.90 223.67 94.25 229.18 94.15
  Q 231.81 94.10 234.74 93.90
  C 240.75 93.50 245.70 96.17 246.15 102.76
  Q 246.77 111.72 246.67 136.67
  C 246.65 141.20 246.48 145.57 246.62 149.00
  A 0.59 0.59 0.0 0 0 247.21 149.56
  L 269.90 149.56
  A 0.71 0.71 0.0 0 0 270.61 148.84
  Q 270.48 126.91 270.50 118.13
  C 270.51 113.23 269.56 110.37 273.50 106.46
  Q 278.25 101.76 283.00 97.00
  C 287.58 92.41 293.00 94.67 298.61 94.03
  C 302.62 93.58 307.47 94.56 311.49 94.35
  Q 317.87 94.03 327.32 94.10
  A 2.92 2.83 51.7 0 1 328.07 94.20
  Q 336.74 96.51 335.50 105.51
  Q 335.09 108.55 335.34 109.85
  Q 335.73 111.83 335.35 113.66
  C 334.87 116.02 335.83 119.02 335.62 121.59
  Q 335.36 124.78 335.34 125.78
  A 0.78 0.78 0.0 0 0 336.54 126.44
  Q 348.13 119.09 358.16 114.31
  Q 364.14 111.46 367.03 109.67
  Q 373.07 105.93 375.77 104.79
  Q 378.78 103.53 385.01 100.04
  Q 396.44 93.65 419.46 81.46
  C 424.57 78.75 429.58 82.01 432.16 86.84
  Q 438.06 97.85 441.11 104.01
  A 1.29 1.29 0.0 0 0 443.21 104.33
  C 447.63 99.66 451.98 93.89 459.06 94.00
  Q 472.62 94.21 477.57 94.01
  C 479.36 93.94 481.69 94.48 483.27 94.31
  C 488.58 93.73 495.80 92.90 499.25 97.65
  Q 501.77 101.10 501.51 104.81
  C 501.17 109.48 501.85 114.36 501.35 118.43
  Q 501.10 120.40 501.42 123.57
  Q 501.53 124.75 501.48 128.75
  Q 501.30 142.52 501.52 213.38
  C 501.53 217.10 501.26 221.61 501.66 226.12
  A 0.41 0.41 0.0 0 0 502.13 226.49
  C 507.03 225.81 513.56 226.44 518.73 226.39
  Q 530.78 226.26 548.99 226.64
  C 552.15 226.71 555.36 226.36 559.12 226.14
  A 0.87 0.86 85.0 0 0 559.93 225.17
  C 559.62 222.60 560.30 220.22 559.98 217.75
  Q 559.92 217.34 559.91 215.25
  Q 559.84 205.05 559.70 197.04
  C 559.56 188.90 560.44 181.49 559.93 173.91
  C 559.54 168.06 560.09 161.77 559.73 155.04
  C 559.45 149.93 559.96 144.29 559.72 138.49
  Q 559.64 136.71 559.83 127.01
  Q 559.97 120.00 559.72 115.50
  Q 559.38 109.64 560.60 105.37
  Q 561.18 103.32 564.11 100.35
  Q 570.23 94.14 573.66 90.92
  C 576.05 88.66 578.88 88.40 582.18 89.67
  C 587.76 91.81 595.40 93.25 601.51 95.35
  Q 607.15 97.29 616.90 99.85
  Q 621.90 101.16 623.81 106.88
  A 0.89 0.75 39.9 0 1 623.86 107.16
  L 623.77 175.63
  A 0.30 0.30 0.0 0 0 624.16 175.92
  Z
  M 340.13 228.64
  L 423.16 273.31
  A 0.84 0.84 0.0 0 0 424.30 272.96
  L 441.61 240.80
  A 1.03 1.03 0.0 0 0 440.95 239.31
  C 438.24 238.63 436.68 237.22 434.65 236.15
  Q 414.96 225.74 399.24 217.09
  A 0.91 0.91 0.0 0 1 398.97 215.72
  Q 415.61 195.01 424.51 184.26
  Q 425.41 183.17 426.77 180.85
  A 1.20 1.18 -49.9 0 0 426.66 179.48
  L 398.41 145.12
  A 0.18 0.17 56.2 0 1 398.46 144.85
  L 441.04 122.05
  A 1.02 1.02 0.0 0 0 441.46 120.67
  L 424.49 89.00
  A 1.24 1.23 -26.7 0 0 422.87 88.47
  C 415.20 92.20 405.35 97.91 398.01 101.74
  Q 389.33 106.27 388.34 106.90
  C 382.89 110.39 377.35 112.15 371.78 115.80
  Q 368.08 118.22 361.24 121.46
  Q 351.74 125.95 339.85 133.45
  A 0.30 0.30 0.0 0 0 339.77 133.89
  L 377.53 179.79
  A 1.29 1.29 0.0 0 1 377.54 181.42
  L 339.97 227.84
  A 0.53 0.53 0.0 0 0 340.13 228.64
  Z
  M 872.21 120.89
  L 855.26 89.24
  A 1.49 1.49 0.0 0 0 853.25 88.63
  L 771.15 132.60
  A 1.39 1.38 -36.5 0 0 770.82 134.80
  Q 774.24 138.23 775.17 139.56
  Q 777.39 142.69 779.22 144.59
  C 782.52 148.00 785.69 152.80 788.76 156.19
  Q 792.79 160.63 796.27 165.77
  A 7.04 6.84 4.1 0 0 797.50 167.15
  C 800.84 169.97 803.65 174.55 806.82 178.08
  Q 808.74 180.21 831.49 208.02
  Q 832.79 209.61 834.14 211.50
  A 0.91 0.91 0.0 0 1 833.88 212.79
  L 790.54 239.88
  A 1.28 1.28 0.0 0 0 790.12 241.61
  Q 797.52 254.22 804.00 263.98
  C 805.62 266.42 806.47 268.69 807.97 270.99
  Q 809.48 273.30 811.48 271.97
  Q 821.28 265.43 831.26 259.65
  C 833.90 258.12 836.46 256.06 839.63 254.42
  C 841.99 253.20 844.20 251.19 846.41 249.93
  Q 855.83 244.52 860.56 241.19
  C 866.39 237.09 873.06 234.12 879.23 229.55
  C 883.19 226.62 887.73 224.49 891.11 222.56
  A 1.17 1.16 -34.6 0 0 891.44 220.81
  L 829.61 145.64
  A 0.85 0.85 0.0 0 1 829.87 144.34
  L 871.93 121.81
  A 0.68 0.68 0.0 0 0 872.21 120.89
  Z
  M 630.97 182.18
  A 1.19 1.19 0.0 0 0 630.96 183.71
  L 707.47 276.71
  A 1.19 1.19 0.0 0 0 709.31 276.71
  L 785.84 183.82
  A 1.19 1.19 0.0 0 0 785.83 182.30
  L 709.52 91.43
  A 1.19 1.19 0.0 0 0 707.70 91.43
  L 630.97 182.18
  Z
  M 614.63 271.33
  A 1.45 1.45 0.0 0 0 616.08 269.88
  L 616.08 108.75
  A 1.45 1.45 0.0 0 0 615.04 107.35
  L 579.59 96.96
  A 1.45 1.45 0.0 0 0 577.73 98.35
  L 577.73 269.88
  A 1.45 1.45 0.0 0 0 579.18 271.33
  L 614.63 271.33
  Z
  M 237.86 191.79
  L 284.87 191.79
  A 0.56 0.56 0.0 0 1 285.43 192.35
  L 285.43 268.68
  A 1.63 1.62 90.0 0 0 287.05 270.31
  L 327.18 270.31
  A 0.49 0.49 0.0 0 0 327.67 269.82
  L 327.87 251.89
  Q 327.87 251.84 327.87 251.80
  Q 327.42 248.00 327.50 246.03
  Q 327.93 234.55 327.83 224.50
  Q 327.58 199.92 327.68 169.67
  C 327.69 166.39 328.29 163.94 327.88 161.01
  Q 327.71 159.78 327.70 154.50
  Q 327.68 147.43 327.79 130.11
  C 327.81 126.65 327.34 123.98 327.84 121.31
  A 0.35 0.31 -41.4 0 0 327.85 121.23
  L 327.62 102.81
  A 1.03 1.03 0.0 0 0 326.59 101.79
  L 289.52 101.79
  A 1.12 1.12 0.0 0 0 288.40 102.91
  L 288.40 156.90
  A 0.37 0.36 -90.0 0 1 288.04 157.27
  L 239.98 157.27
  A 1.08 1.08 0.0 0 1 238.90 156.19
  L 238.90 103.32
  A 1.73 1.71 3.6 0 0 237.39 101.62
  C 234.68 101.28 232.52 102.08 229.92 101.90
  Q 226.71 101.68 225.06 101.70
  Q 207.27 101.94 202.49 101.93
  Q 201.53 101.93 199.38 101.57
  A 0.57 0.57 0.0 0 0 198.72 102.08
  C 197.98 109.12 198.59 118.21 198.53 124.62
  Q 198.34 141.81 198.53 157.61
  C 198.57 160.70 198.25 164.41 198.45 168.26
  C 198.74 173.78 198.19 180.93 198.39 186.26
  C 198.80 197.68 198.35 210.11 198.54 219.74
  Q 198.71 229.13 198.49 243.24
  Q 198.34 252.90 198.72 269.13
  A 1.16 1.16 0.0 0 0 199.88 270.26
  L 236.59 270.26
  A 0.85 0.84 -4.6 0 0 237.43 269.28
  L 237.06 266.92
  A 5.51 5.44 -44.7 0 1 237.08 265.12
  C 237.67 261.89 237.17 257.46 237.27 253.03
  Q 237.40 247.75 237.17 192.48
  A 0.69 0.69 0.0 0 1 237.86 191.79
  Z
  M 456.01 102.68
  L 456.01 269.97
  A 0.89 0.89 0.0 0 0 456.87 270.86
  Q 467.95 271.24 474.41 271.06
  C 477.93 270.96 480.81 271.45 483.76 271.13
  Q 487.25 270.75 490.77 271.02
  Q 493.85 271.26 504.44 270.99
  Q 510.08 270.85 518.06 271.18
  Q 522.71 271.37 532.72 270.58
  A 1.86 1.84 18.3 0 0 533.95 269.97
  L 564.56 235.79
  A 0.84 0.84 0.0 0 0 564.14 234.41
  C 559.55 233.28 553.89 234.40 549.10 234.30
  Q 534.17 233.98 504.28 234.08
  Q 497.55 234.11 494.31 233.64
  A 0.63 0.63 0.0 0 1 493.77 233.02
  Q 493.59 167.62 493.73 126.85
  C 493.74 124.46 493.42 121.72 493.58 119.51
  Q 494.02 113.49 493.59 108.75
  C 493.39 106.50 495.22 101.52 491.25 101.65
  Q 482.98 101.93 459.44 101.67
  Q 457.86 101.65 456.43 102.11
  A 0.60 0.60 0.0 0 0 456.01 102.68
  Z
  M 437.39 137.09
  C 433.92 139.89 431.22 140.44 427.28 142.70
  Q 423.57 144.83 413.46 150.07
  A 0.86 0.86 0.0 0 0 413.25 151.45
  Q 415.87 154.00 417.32 155.72
  Q 424.82 164.67 429.88 171.26
  A 7.70 6.96 67.2 0 0 430.59 172.07
  C 436.46 177.81 435.73 182.60 430.89 188.64
  Q 424.84 196.20 410.67 213.44
  A 0.81 0.80 34.1 0 0 410.91 214.66
  L 436.67 228.52
  A 0.96 0.96 0.0 0 0 438.08 227.67
  L 438.08 137.42
  A 0.43 0.42 -19.3 0 0 437.39 137.09
  Z
  M 336.26 164.47
  A 0.50 0.50 0.0 0 0 335.37 164.79
  L 335.46 217.17
  A 0.50 0.50 0.0 0 0 336.35 217.49
  L 357.76 191.26
  A 0.50 0.50 0.0 0 0 357.76 190.63
  L 336.26 164.47
  Z"
/>
<path fill="#ffffff" d="
  M 339.97 227.84
  L 377.54 181.42
  A 1.29 1.29 0.0 0 0 377.53 179.79
  L 339.77 133.89
  A 0.30 0.30 0.0 0 1 339.85 133.45
  Q 351.74 125.95 361.24 121.46
  Q 368.08 118.22 371.78 115.80
  C 377.35 112.15 382.89 110.39 388.34 106.90
  Q 389.33 106.27 398.01 101.74
  C 405.35 97.91 415.20 92.20 422.87 88.47
  A 1.24 1.23 -26.7 0 1 424.49 89.00
  L 441.46 120.67
  A 1.02 1.02 0.0 0 1 441.04 122.05
  L 398.46 144.85
  A 0.18 0.17 56.2 0 0 398.41 145.12
  L 426.66 179.48
  A 1.20 1.18 -49.9 0 1 426.77 180.85
  Q 425.41 183.17 424.51 184.26
  Q 415.61 195.01 398.97 215.72
  A 0.91 0.91 0.0 0 0 399.24 217.09
  Q 414.96 225.74 434.65 236.15
  C 436.68 237.22 438.24 238.63 440.95 239.31
  A 1.03 1.03 0.0 0 1 441.61 240.80
  L 424.30 272.96
  A 0.84 0.84 0.0 0 1 423.16 273.31
  L 340.13 228.64
  A 0.53 0.53 0.0 0 1 339.97 227.84
  Z
  M 420.61 114.90
  Q 418.33 113.31 417.60 109.91
  A 0.88 0.88 0.0 0 0 416.32 109.32
  Q 387.12 125.01 368.59 134.81
  Q 364.40 137.02 366.86 140.70
  C 371.43 147.57 382.24 159.53 389.15 168.78
  Q 393.70 174.86 397.56 179.32
  A 1.06 1.05 43.3 0 1 397.60 180.65
  Q 381.61 201.54 368.37 218.37
  C 364.41 223.40 367.20 225.73 371.49 228.05
  Q 394.78 240.67 411.26 249.38
  C 412.79 250.19 413.86 251.06 415.18 251.79
  A 0.68 0.67 -61.0 0 0 416.10 251.52
  L 418.39 247.25
  A 1.43 1.43 0.0 0 1 419.21 246.56
  Q 419.84 246.35 419.73 246.02
  Q 419.49 245.31 418.84 244.97
  Q 397.11 233.35 376.14 221.90
  A 0.53 0.53 0.0 0 1 375.97 221.11
  Q 389.21 203.94 405.18 183.19
  Q 406.81 181.08 406.26 178.37
  A 1.31 1.27 20.9 0 0 406.00 177.81
  L 376.11 140.21
  A 0.59 0.59 0.0 0 1 376.30 139.32
  L 420.57 115.61
  A 0.42 0.42 0.0 0 0 420.61 114.90
  Z"
/>
<path fill="#ffffff" d="
  M 871.93 121.81
  L 829.87 144.34
  A 0.85 0.85 0.0 0 0 829.61 145.64
  L 891.44 220.81
  A 1.17 1.16 -34.6 0 1 891.11 222.56
  C 887.73 224.49 883.19 226.62 879.23 229.55
  C 873.06 234.12 866.39 237.09 860.56 241.19
  Q 855.83 244.52 846.41 249.93
  C 844.20 251.19 841.99 253.20 839.63 254.42
  C 836.46 256.06 833.90 258.12 831.26 259.65
  Q 821.28 265.43 811.48 271.97
  Q 809.48 273.30 807.97 270.99
  C 806.47 268.69 805.62 266.42 804.00 263.98
  Q 797.52 254.22 790.12 241.61
  A 1.28 1.28 0.0 0 1 790.54 239.88
  L 833.88 212.79
  A 0.91 0.91 0.0 0 0 834.14 211.50
  Q 832.79 209.61 831.49 208.02
  Q 808.74 180.21 806.82 178.08
  C 803.65 174.55 800.84 169.97 797.50 167.15
  A 7.04 6.84 4.1 0 1 796.27 165.77
  Q 792.79 160.63 788.76 156.19
  C 785.69 152.80 782.52 148.00 779.22 144.59
  Q 777.39 142.69 775.17 139.56
  Q 774.24 138.23 770.82 134.80
  A 1.39 1.38 -36.5 0 1 771.15 132.60
  L 853.25 88.63
  A 1.49 1.49 0.0 0 1 855.26 89.24
  L 872.21 120.89
  A 0.68 0.68 0.0 0 1 871.93 121.81
  Z
  M 850.78 114.67
  L 850.08 114.28
  A 0.80 0.74 88.9 0 1 849.77 113.96
  L 847.42 109.58
  A 0.64 0.64 0.0 0 0 846.54 109.32
  Q 825.22 120.97 801.60 133.33
  Q 799.35 134.51 797.42 136.07
  A 1.96 1.91 79.2 0 0 796.78 137.04
  Q 796.09 139.49 797.97 141.76
  Q 820.46 168.93 856.34 212.70
  A 0.51 0.50 -36.8 0 1 856.23 213.43
  L 808.52 245.80
  A 0.31 0.31 0.0 0 0 808.43 246.23
  L 812.30 251.93
  A 0.36 0.36 0.0 0 0 812.80 252.03
  Q 833.13 238.41 858.80 220.82
  Q 860.04 219.97 863.78 217.59
  C 867.23 215.38 866.70 213.31 864.21 210.29
  Q 816.64 152.43 811.23 145.87
  Q 807.10 140.86 806.54 140.14
  A 0.57 0.56 56.5 0 1 806.71 139.29
  L 850.78 115.70
  A 0.59 0.59 0.0 0 0 850.78 114.67
  Z"
/>
<path fill="#ffffff" d="
  M 630.97 182.18
  L 707.70 91.43
  A 1.19 1.19 0.0 0 1 709.52 91.43
  L 785.83 182.30
  A 1.19 1.19 0.0 0 1 785.84 183.82
  L 709.31 276.71
  A 1.19 1.19 0.0 0 1 707.47 276.71
  L 630.96 183.71
  A 1.19 1.19 0.0 0 1 630.97 182.18
  Z
  M 766.00 186.36
  A 4.01 4.01 0.0 0 0 766.01 181.13
  L 711.57 117.66
  A 4.01 4.01 0.0 0 0 705.46 117.69
  L 651.58 181.41
  A 4.01 4.01 0.0 0 0 651.60 186.61
  L 705.43 249.35
  A 4.01 4.01 0.0 0 0 711.51 249.36
  L 766.00 186.36
  Z"
/>
<path fill="#ffffff" d="
  M 614.63 271.33
  L 579.18 271.33
  A 1.45 1.45 0.0 0 1 577.73 269.88
  L 577.73 98.35
  A 1.45 1.45 0.0 0 1 579.59 96.96
  L 615.04 107.35
  A 1.45 1.45 0.0 0 1 616.08 108.75
  L 616.08 269.88
  A 1.45 1.45 0.0 0 1 614.63 271.33
  Z
  M 600.71 114.99
  A 0.26 0.26 0.0 0 0 600.45 114.73
  L 593.39 114.73
  A 0.26 0.26 0.0 0 0 593.13 114.99
  L 593.13 257.93
  A 0.26 0.26 0.0 0 0 593.39 258.19
  L 600.45 258.19
  A 0.26 0.26 0.0 0 0 600.71 257.93
  L 600.71 114.99
  Z"
/>
<path fill="#ffffff" d="
  M 237.86 191.79
  A 0.69 0.69 0.0 0 0 237.17 192.48
  Q 237.40 247.75 237.27 253.03
  C 237.17 257.46 237.67 261.89 237.08 265.12
  A 5.51 5.44 -44.7 0 0 237.06 266.92
  L 237.43 269.28
  A 0.85 0.84 -4.6 0 1 236.59 270.26
  L 199.88 270.26
  A 1.16 1.16 0.0 0 1 198.72 269.13
  Q 198.34 252.90 198.49 243.24
  Q 198.71 229.13 198.54 219.74
  C 198.35 210.11 198.80 197.68 198.39 186.26
  C 198.19 180.93 198.74 173.78 198.45 168.26
  C 198.25 164.41 198.57 160.70 198.53 157.61
  Q 198.34 141.81 198.53 124.62
  C 198.59 118.21 197.98 109.12 198.72 102.08
  A 0.57 0.57 0.0 0 1 199.38 101.57
  Q 201.53 101.93 202.49 101.93
  Q 207.27 101.94 225.06 101.70
  Q 226.71 101.68 229.92 101.90
  C 232.52 102.08 234.68 101.28 237.39 101.62
  A 1.73 1.71 3.6 0 1 238.90 103.32
  L 238.90 156.19
  A 1.08 1.08 0.0 0 0 239.98 157.27
  L 288.04 157.27
  A 0.37 0.36 -90.0 0 0 288.40 156.90
  L 288.40 102.91
  A 1.12 1.12 0.0 0 1 289.52 101.79
  L 326.59 101.79
  A 1.03 1.03 0.0 0 1 327.62 102.81
  L 327.85 121.23
  A 0.35 0.31 -41.4 0 1 327.84 121.31
  C 327.34 123.98 327.81 126.65 327.79 130.11
  Q 327.68 147.43 327.70 154.50
  Q 327.71 159.78 327.88 161.01
  C 328.29 163.94 327.69 166.39 327.68 169.67
  Q 327.58 199.92 327.83 224.50
  Q 327.93 234.55 327.50 246.03
  Q 327.42 248.00 327.87 251.80
  Q 327.87 251.84 327.87 251.89
  L 327.67 269.82
  A 0.49 0.49 0.0 0 1 327.18 270.31
  L 287.05 270.31
  A 1.63 1.62 -90.0 0 1 285.43 268.68
  L 285.43 192.35
  A 0.56 0.56 0.0 0 0 284.87 191.79
  L 237.86 191.79
  Z
  M 220.92 114.16
  Q 218.28 115.61 214.93 114.37
  A 0.54 0.54 0.0 0 0 214.20 114.88
  L 214.27 258.94
  A 0.66 0.65 -30.8 0 0 215.50 259.25
  Q 215.52 259.21 215.51 258.97
  A 0.97 0.97 0.0 0 1 216.33 257.98
  Q 219.40 257.53 220.97 258.59
  A 0.59 0.58 17.2 0 0 221.89 258.11
  L 221.89 178.41
  A 0.68 0.68 0.0 0 1 222.57 177.73
  L 304.18 177.73
  A 0.44 0.44 0.0 0 1 304.62 178.17
  L 304.62 257.47
  A 0.48 0.48 0.0 0 0 305.10 257.95
  L 310.34 257.95
  A 0.85 0.84 -16.5 0 1 311.05 258.33
  Q 311.34 258.76 311.38 258.77
  A 0.67 0.67 0.0 0 0 312.21 258.12
  L 312.19 115.11
  A 0.32 0.31 -90.0 0 0 311.88 114.79
  L 304.89 114.79
  A 0.27 0.27 0.0 0 0 304.62 115.06
  L 304.62 169.83
  A 0.54 0.54 0.0 0 1 304.08 170.37
  L 222.47 170.37
  A 0.61 0.61 0.0 0 1 221.86 169.76
  L 221.86 114.72
  A 0.64 0.64 0.0 0 0 220.92 114.16
  Z"
/>
<path fill="#ffffff" d="
  M 456.43 102.11
  Q 457.86 101.65 459.44 101.67
  Q 482.98 101.93 491.25 101.65
  C 495.22 101.52 493.39 106.50 493.59 108.75
  Q 494.02 113.49 493.58 119.51
  C 493.42 121.72 493.74 124.46 493.73 126.85
  Q 493.59 167.62 493.77 233.02
  A 0.63 0.63 0.0 0 0 494.31 233.64
  Q 497.55 234.11 504.28 234.08
  Q 534.17 233.98 549.10 234.30
  C 553.89 234.40 559.55 233.28 564.14 234.41
  A 0.84 0.84 0.0 0 1 564.56 235.79
  L 533.95 269.97
  A 1.86 1.84 18.3 0 1 532.72 270.58
  Q 522.71 271.37 518.06 271.18
  Q 510.08 270.85 504.44 270.99
  Q 493.85 271.26 490.77 271.02
  Q 487.25 270.75 483.76 271.13
  C 480.81 271.45 477.93 270.96 474.41 271.06
  Q 467.95 271.24 456.87 270.86
  A 0.89 0.89 0.0 0 1 456.01 269.97
  L 456.01 102.68
  A 0.60 0.60 0.0 0 1 456.43 102.11
  Z
  M 532.34 248.65
  L 479.09 248.65
  A 0.60 0.59 -0.0 0 1 478.49 248.06
  L 478.49 114.86
  A 0.54 0.54 0.0 0 0 477.76 114.35
  Q 474.68 115.47 471.55 114.42
  A 0.52 0.52 0.0 0 0 470.87 114.91
  Q 470.92 179.29 470.92 251.30
  C 470.92 255.22 473.73 256.30 477.35 256.29
  Q 529.78 256.23 532.20 256.21
  A 0.33 0.33 0.0 0 0 532.53 255.88
  L 532.53 248.84
  A 0.19 0.19 0.0 0 0 532.34 248.65
  Z"
/>
<path fill="#000000" d="
  M 420.61 114.90
  A 0.42 0.42 0.0 0 1 420.57 115.61
  L 376.30 139.32
  A 0.59 0.59 0.0 0 0 376.11 140.21
  L 406.00 177.81
  A 1.31 1.27 20.9 0 1 406.26 178.37
  Q 406.81 181.08 405.18 183.19
  Q 389.21 203.94 375.97 221.11
  A 0.53 0.53 0.0 0 0 376.14 221.90
  Q 397.11 233.35 418.84 244.97
  Q 419.49 245.31 419.73 246.02
  Q 419.84 246.35 419.21 246.56
  A 1.43 1.43 0.0 0 0 418.39 247.25
  L 416.10 251.52
  A 0.68 0.67 -61.0 0 1 415.18 251.79
  C 413.86 251.06 412.79 250.19 411.26 249.38
  Q 394.78 240.67 371.49 228.05
  C 367.20 225.73 364.41 223.40 368.37 218.37
  Q 381.61 201.54 397.60 180.65
  A 1.06 1.05 43.3 0 0 397.56 179.32
  Q 393.70 174.86 389.15 168.78
  C 382.24 159.53 371.43 147.57 366.86 140.70
  Q 364.40 137.02 368.59 134.81
  Q 387.12 125.01 416.32 109.32
  A 0.88 0.88 0.0 0 1 417.60 109.91
  Q 418.33 113.31 420.61 114.90
  Z"
/>
<path fill="#000000" d="
  M 850.78 114.67
  A 0.59 0.59 0.0 0 1 850.78 115.70
  L 806.71 139.29
  A 0.57 0.56 56.5 0 0 806.54 140.14
  Q 807.10 140.86 811.23 145.87
  Q 816.64 152.43 864.21 210.29
  C 866.70 213.31 867.23 215.38 863.78 217.59
  Q 860.04 219.97 858.80 220.82
  Q 833.13 238.41 812.80 252.03
  A 0.36 0.36 0.0 0 1 812.30 251.93
  L 808.43 246.23
  A 0.31 0.31 0.0 0 1 808.52 245.80
  L 856.23 213.43
  A 0.51 0.50 -36.8 0 0 856.34 212.70
  Q 820.46 168.93 797.97 141.76
  Q 796.09 139.49 796.78 137.04
  A 1.96 1.91 79.2 0 1 797.42 136.07
  Q 799.35 134.51 801.60 133.33
  Q 825.22 120.97 846.54 109.32
  A 0.64 0.64 0.0 0 1 847.42 109.58
  L 849.77 113.96
  A 0.80 0.74 88.9 0 0 850.08 114.28
  L 850.78 114.67
  Z"
/>
<path fill="#000000" d="
  M 220.92 114.16
  A 0.64 0.64 0.0 0 1 221.86 114.72
  L 221.86 169.76
  A 0.61 0.61 0.0 0 0 222.47 170.37
  L 304.08 170.37
  A 0.54 0.54 0.0 0 0 304.62 169.83
  L 304.62 115.06
  A 0.27 0.27 0.0 0 1 304.89 114.79
  L 311.88 114.79
  A 0.32 0.31 90.0 0 1 312.19 115.11
  L 312.21 258.12
  A 0.67 0.67 0.0 0 1 311.38 258.77
  Q 311.34 258.76 311.05 258.33
  A 0.85 0.84 -16.5 0 0 310.34 257.95
  L 305.10 257.95
  A 0.48 0.48 0.0 0 1 304.62 257.47
  L 304.62 178.17
  A 0.44 0.44 0.0 0 0 304.18 177.73
  L 222.57 177.73
  A 0.68 0.68 0.0 0 0 221.89 178.41
  L 221.89 258.11
  A 0.59 0.58 17.2 0 1 220.97 258.59
  Q 219.40 257.53 216.33 257.98
  A 0.97 0.97 0.0 0 0 215.51 258.97
  Q 215.52 259.21 215.50 259.25
  A 0.66 0.65 -30.8 0 1 214.27 258.94
  L 214.20 114.88
  A 0.54 0.54 0.0 0 1 214.93 114.37
  Q 218.28 115.61 220.92 114.16
  Z"
/>
<path fill="#000000" d="
  M 532.34 248.65
  A 0.19 0.19 0.0 0 1 532.53 248.84
  L 532.53 255.88
  A 0.33 0.33 0.0 0 1 532.20 256.21
  Q 529.78 256.23 477.35 256.29
  C 473.73 256.30 470.92 255.22 470.92 251.30
  Q 470.92 179.29 470.87 114.91
  A 0.52 0.52 0.0 0 1 471.55 114.42
  Q 474.68 115.47 477.76 114.35
  A 0.54 0.54 0.0 0 1 478.49 114.86
  L 478.49 248.06
  A 0.60 0.59 0.0 0 0 479.09 248.65
  L 532.34 248.65
  Z"
/>
<rect fill="#000000" x="593.13" y="114.73" width="7.58" height="143.46" rx="0.26"/>
<path fill="#000000" d="
  M 766.00 186.36
  L 711.51 249.36
  A 4.01 4.01 0.0 0 1 705.43 249.35
  L 651.60 186.61
  A 4.01 4.01 0.0 0 1 651.58 181.41
  L 705.46 117.69
  A 4.01 4.01 0.0 0 1 711.57 117.66
  L 766.01 181.13
  A 4.01 4.01 0.0 0 1 766.00 186.36
  Z
  M 708.08 240.87
  A 0.54 0.54 0.0 0 0 708.90 240.88
  L 758.04 184.08
  A 0.54 0.54 0.0 0 0 758.04 183.38
  L 708.98 126.20
  A 0.54 0.54 0.0 0 0 708.16 126.20
  L 659.59 183.66
  A 0.54 0.54 0.0 0 0 659.59 184.36
  L 708.08 240.87
  Z"
/>
<path fill="#ffffff" d="
  M 708.08 240.87
  L 659.59 184.36
  A 0.54 0.54 0.0 0 1 659.59 183.66
  L 708.16 126.20
  A 0.54 0.54 0.0 0 1 708.98 126.20
  L 758.04 183.38
  A 0.54 0.54 0.0 0 1 758.04 184.08
  L 708.90 240.88
  A 0.54 0.54 0.0 0 1 708.08 240.87
  Z
  M 709.56 147.18
  A 1.36 1.36 0.0 0 0 707.48 147.17
  L 677.71 182.38
  A 1.36 1.36 0.0 0 0 677.70 184.13
  L 707.37 220.19
  A 1.36 1.36 0.0 0 0 709.47 220.20
  L 739.16 184.16
  A 1.36 1.36 0.0 0 0 739.15 182.42
  L 709.56 147.18
  Z"
/>
<path fill="#000000" d="
  M 709.56 147.18
  L 739.15 182.42
  A 1.36 1.36 0.0 0 1 739.16 184.16
  L 709.47 220.20
  A 1.36 1.36 0.0 0 1 707.37 220.19
  L 677.70 184.13
  A 1.36 1.36 0.0 0 1 677.71 182.38
  L 707.48 147.17
  A 1.36 1.36 0.0 0 1 709.56 147.18
  Z
  M 719.16 193.88
  A 0.57 0.57 0.0 0 0 719.16 193.16
  L 699.60 169.37
  A 0.57 0.57 0.0 0 0 698.72 169.37
  L 687.42 183.09
  A 0.57 0.57 0.0 0 0 687.42 183.81
  L 706.98 207.60
  A 0.57 0.57 0.0 0 0 707.86 207.60
  L 719.16 193.88
  Z"
/>
</svg>
