<?xml version="1.0" encoding="UTF-8" standalone="no"?>
<svg xmlns="http://www.w3.org/2000/svg" version="1.1" viewBox="-540 -540 2160 2160">
<path fill="#ffffff" d="
  M 1021.92 405.41
  Q 1035.98 455.83 1039.14 507.12
  C 1040.10 522.67 1039.66 541.22 1039.58 559.25
  Q 1039.52 574.16 1037.59 592.37
  Q 1027.05 691.65 979.79 778.55
  C 939.22 853.16 878.75 917.82 806.71 963.19
  Q 706.32 1026.42 588.25 1038.05
  Q 574.02 1039.45 561.00 1039.51
  C 536.21 1039.63 518.91 1040.14 497.76 1038.47
  Q 450.64 1034.75 401.90 1020.93
  C 306.52 993.91 221.01 937.75 157.35 862.15
  C 84.50 775.63 42.47 666.36 40.07 553.54
  Q 39.75 538.69 40.34 516.70
  Q 40.87 496.62 42.94 479.95
  Q 56.15 373.48 110.99 282.48
  C 183.84 161.64 305.50 75.86 444.15 48.93
  Q 485.91 40.82 528.75 39.94
  Q 600.04 38.47 666.81 56.05
  C 767.63 82.59 857.23 140.06 924.07 220.18
  Q 988.92 297.92 1018.98 396.76
  C 1019.83 399.55 1021.13 402.58 1021.92 405.41
  Z
  M 76.4697 566.7801
  A 464.18 464.17 -183.3 0 0 566.5995 1003.4603
  A 464.18 464.17 -183.3 0 0 1003.2903 513.3399
  A 464.18 464.17 -183.3 0 0 513.1605 76.6597
  A 464.18 464.17 -183.3 0 0 76.4697 566.7801
  Z"
/>
<path fill="#ffffff" d="
  M 267.26 328.51
  L 208.83 328.51
  A 0.43 0.43 0.0 0 1 208.40 328.08
  L 208.40 289.87
  A 0.43 0.43 0.0 0 1 208.83 289.44
  L 365.69 289.44
  A 0.43 0.43 0.0 0 1 366.12 289.87
  L 366.12 328.07
  A 0.43 0.43 0.0 0 1 365.69 328.50
  L 307.20 328.50
  A 0.43 0.43 0.0 0 0 306.77 328.93
  L 306.77 461.39
  A 0.43 0.43 0.0 0 0 307.20 461.82
  L 406.41 461.82
  A 0.43 0.43 0.0 0 1 406.84 462.25
  L 406.84 500.42
  A 0.43 0.43 0.0 0 1 406.41 500.85
  L 307.22 500.85
  A 0.43 0.43 0.0 0 0 306.79 501.28
  L 306.79 645.48
  A 0.43 0.43 0.0 0 0 307.22 645.91
  L 365.72 645.91
  A 0.43 0.43 0.0 0 1 366.15 646.34
  L 366.15 684.52
  A 0.43 0.43 0.0 0 1 365.72 684.95
  L 208.86 684.95
  A 0.43 0.43 0.0 0 1 208.43 684.52
  L 208.43 646.36
  A 0.43 0.43 0.0 0 1 208.86 645.93
  L 267.26 645.93
  A 0.43 0.43 0.0 0 0 267.69 645.50
  L 267.69 328.94
  A 0.43 0.43 0.0 0 0 267.26 328.51
  Z"
/>
<path fill="#ffffff" d="
  M 702.57 645.56
  A 0.35 0.34 90.0 0 1 702.91 645.91
  L 702.92 684.21
  A 0.34 0.34 0.0 0 1 702.58 684.55
  L 545.82 684.56
  A 0.46 0.45 90.0 0 1 545.37 684.10
  L 545.38 646.02
  A 0.47 0.47 0.0 0 1 545.85 645.55
  L 604.38 645.56
  A 0.28 0.28 0.0 0 0 604.66 645.28
  L 604.65 500.94
  A 0.28 0.28 0.0 0 0 604.37 500.66
  L 505.00 500.66
  A 0.35 0.35 0.0 0 1 504.65 500.31
  L 504.75 462.03
  A 0.35 0.35 0.0 0 1 505.10 461.68
  L 604.05 461.68
  A 0.61 0.60 90.0 0 0 604.65 461.07
  L 604.64 329.10
  A 0.59 0.59 0.0 0 0 604.05 328.51
  L 545.77 328.51
  A 0.43 0.43 0.0 0 1 545.34 328.08
  L 545.36 289.96
  A 0.48 0.47 -0.0 0 1 545.84 289.49
  L 702.38 289.48
  A 0.51 0.51 0.0 0 1 702.89 289.99
  L 702.90 328.14
  A 0.36 0.35 90.0 0 1 702.55 328.49
  L 644.16 328.50
  A 0.48 0.48 0.0 0 0 643.68 328.98
  L 643.71 645.03
  A 0.53 0.53 0.0 0 0 644.24 645.56
  L 702.57 645.56
  Z"
/>
<path fill="#ffffff" d="
  M 773.19 751.05
  L 773.19 591.44
  A 0.44 0.44 0.0 0 0 772.75 591.00
  L 673.06 591.00
  A 0.44 0.44 0.0 0 1 672.62 590.56
  L 672.62 552.43
  A 0.44 0.44 0.0 0 1 673.06 551.99
  L 772.75 551.99
  A 0.44 0.44 0.0 0 0 773.19 551.55
  L 773.19 418.94
  A 0.44 0.44 0.0 0 0 772.75 418.50
  L 714.50 418.50
  A 0.44 0.44 0.0 0 1 714.06 418.06
  L 714.06 379.88
  A 0.44 0.44 0.0 0 1 714.50 379.44
  L 871.24 379.44
  A 0.44 0.44 0.0 0 1 871.68 379.88
  L 871.68 418.07
  A 0.44 0.44 0.0 0 1 871.24 418.51
  L 812.79 418.51
  A 0.44 0.44 0.0 0 0 812.35 418.95
  L 812.35 751.03
  A 0.44 0.44 0.0 0 0 812.79 751.47
  L 871.24 751.47
  A 0.44 0.44 0.0 0 1 871.68 751.91
  L 871.68 790.07
  A 0.44 0.44 0.0 0 1 871.24 790.51
  L 714.49 790.51
  A 0.44 0.44 0.0 0 1 714.05 790.07
  L 714.05 751.93
  A 0.44 0.44 0.0 0 1 714.49 751.49
  L 772.75 751.49
  A 0.44 0.44 0.0 0 0 773.19 751.05
  Z"
/>
<path fill="#ffffff" d="
  M 574.26 591.00
  L 475.87 591.00
  A 0.40 0.40 0.0 0 0 475.47 591.40
  L 475.47 751.07
  A 0.40 0.40 0.0 0 0 475.87 751.47
  L 534.43 751.47
  A 0.40 0.40 0.0 0 1 534.83 751.87
  L 534.83 790.11
  A 0.40 0.40 0.0 0 1 534.43 790.51
  L 377.58 790.51
  A 0.40 0.40 0.0 0 1 377.18 790.11
  L 377.18 751.87
  A 0.40 0.40 0.0 0 1 377.58 751.47
  L 435.92 751.47
  A 0.40 0.40 0.0 0 0 436.32 751.07
  L 436.32 419.15
  A 0.40 0.40 0.0 0 0 435.92 418.75
  L 377.58 418.75
  A 0.40 0.40 0.0 0 1 377.18 418.35
  L 377.18 380.15
  A 0.40 0.40 0.0 0 1 377.58 379.75
  L 534.43 379.75
  A 0.40 0.40 0.0 0 1 534.83 380.15
  L 534.83 418.35
  A 0.40 0.40 0.0 0 1 534.43 418.75
  L 475.87 418.75
  A 0.40 0.40 0.0 0 0 475.47 419.15
  L 475.47 551.59
  A 0.40 0.40 0.0 0 0 475.87 551.99
  L 574.26 551.99
  A 0.40 0.40 0.0 0 1 574.66 552.39
  L 574.66 590.60
  A 0.40 0.40 0.0 0 1 574.26 591.00
  Z"
/>
</svg>
